<svg width="911" height="1161" viewBox="0 0 911 1161" fill="none" xmlns="http://www.w3.org/2000/svg">
<g clip-path="url(#clip0_335_86)">
<path fill-rule="evenodd" clip-rule="evenodd" d="M5.29197 -506.892C2.38139 -509.712 0 -512.424 0 -512.92C0 -513.415 9.0145 -511.569 20.0339 -508.816C97.9257 -489.355 216.65 -466.273 316.762 -451.13C461.574 -429.226 595.713 -416.443 747.68 -410.065C793.899 -408.126 949.109 -407.915 988.226 -409.738L1014.07 -410.943L1015.87 -377.7C1016.86 -359.417 1020.03 -287.682 1022.92 -218.288C1025.8 -148.895 1029.19 -67.9798 1030.44 -38.4772C1036.63 107.469 1038.83 160.478 1040.22 196.486C1042.43 254.125 1043.06 260.704 1046.3 260.704C1047.77 260.704 1049.33 262.064 1049.76 263.726C1050.2 265.394 1051.82 266.748 1053.39 266.748C1055.87 266.748 1061.42 273.569 1061.42 276.622C1061.42 277.227 1058.95 277.321 1055.94 276.833L1050.46 275.944L1051.35 281.458C1051.85 284.492 1053.28 287.549 1054.54 288.251C1055.8 288.955 1058.6 292.564 1060.78 296.272C1064.66 302.884 1066.95 304.273 1069.81 301.745C1070.6 301.047 1073.97 301.072 1077.29 301.802C1082.6 302.965 1083.98 304.232 1088.51 312.136C1091.35 317.091 1094.42 321.149 1095.32 321.154C1096.22 321.16 1098.94 322.199 1101.37 323.465C1106.17 325.966 1108.22 324.682 1108.27 319.154C1108.3 315.743 1112.47 316.725 1120.82 322.107C1126.11 325.513 1126.47 326.199 1125.57 331.025C1124.71 335.582 1124.98 336.255 1127.63 336.255C1129.81 336.255 1131.46 338.174 1133.47 343.048C1135.63 348.314 1137.04 349.843 1139.74 349.848C1143.71 349.855 1149.99 356.362 1151.4 361.942C1151.92 364.02 1154.14 367.593 1156.32 369.885C1159.39 373.111 1159.88 374.456 1158.48 375.854C1155.97 378.356 1156.22 383.862 1158.94 386.118C1160.19 387.153 1161.21 388.957 1161.21 390.128C1161.21 391.299 1162.25 392.655 1163.51 393.14C1165.22 393.793 1165.58 395.316 1164.89 398.965C1163.89 404.296 1166.29 407.333 1169.2 404.421C1170.13 403.496 1172.04 402.739 1173.45 402.739C1176.12 402.739 1178.43 398.862 1177.07 396.664C1175.48 394.105 1179.45 393.566 1182.75 395.89C1184.63 397.204 1188.79 398.992 1192.01 399.861C1197.66 401.39 1197.83 401.621 1196.99 406.812C1196.51 409.764 1195.15 413.286 1193.98 414.637C1191.02 418.047 1192.35 420.574 1198.45 423.12C1201.31 424.317 1204.7 426.34 1205.98 427.618C1207.26 428.895 1209.78 429.643 1211.59 429.279C1213.4 428.915 1217.78 428.226 1221.31 427.748C1227.61 426.896 1227.74 426.965 1227.74 431.328C1227.74 435.08 1229.4 437.009 1238.32 443.643C1245.74 449.152 1248.91 452.487 1248.91 454.774C1248.91 456.572 1249.62 458.76 1250.5 459.637C1251.38 460.515 1253.25 463.54 1254.66 466.361C1258.07 473.19 1263.51 474.158 1264.94 468.189C1266.28 462.565 1268.32 460.158 1271.73 460.158C1274.73 460.158 1279.15 467.177 1279.15 471.951C1279.15 473.535 1282.81 478.295 1287.29 482.53C1295.77 490.546 1302.83 500.469 1302.16 503.43C1301.21 507.599 1304.76 512.648 1309.27 513.548C1311.83 514.06 1313.92 515.431 1313.92 516.594C1313.92 517.758 1316.04 519.133 1318.62 519.65C1322.59 520.441 1323.19 521.123 1322.47 524.007C1321.8 526.671 1322.7 528.173 1326.55 530.812C1329.27 532.675 1332.59 534.198 1333.93 534.198C1335.27 534.198 1338.29 535.754 1340.64 537.656C1342.99 539.559 1346.81 541.933 1349.12 542.932C1354.52 545.271 1355.57 548.206 1353.11 554.146C1351.57 557.854 1351.54 559.068 1352.96 559.542C1353.97 559.879 1355.65 560.944 1356.7 561.908C1363.13 567.845 1371.61 573.484 1374.11 573.484C1376.39 573.484 1377.21 574.861 1377.87 579.737C1378.33 583.174 1379.67 586.953 1380.85 588.135C1382.71 589.99 1383.73 589.854 1388.33 587.141C1391.26 585.414 1394.76 584.426 1396.11 584.942C1398.18 585.736 1412.21 601.925 1415.5 607.311C1417.6 610.756 1421.27 624.834 1421.27 629.44C1421.27 632.879 1422.09 634.42 1424.19 634.97C1426.68 635.62 1427.23 637.545 1427.94 648.05C1428.4 654.825 1429.18 665.375 1429.69 671.493C1430.28 678.681 1430.02 683.202 1428.96 684.261C1425.05 688.169 1429.53 695.165 1435.2 694.009C1436.45 693.753 1437.42 695.819 1437.9 699.743C1438.61 705.491 1440.26 708.277 1450.16 720.486C1452.32 723.156 1454.9 726.879 1455.89 728.761C1457.36 731.561 1458.22 731.895 1460.63 730.604C1464.07 728.765 1470.5 732.176 1471.89 736.58C1472.36 738.041 1474.48 740.028 1476.6 740.994C1479.01 742.094 1480.27 743.733 1479.95 745.379C1479.36 748.446 1471.56 749.528 1406.91 755.5C1343.62 761.347 1272.81 766.256 1195.91 770.141C1200.15 770.133 1204.69 770.126 1209.47 770.119C1216.46 770.109 1223.95 770.098 1231.73 770.088L1299.85 770L1299.89 773.45C1299.91 775.348 1299.91 777 1299.9 777.123C1299.86 777.402 1299.85 789.287 1299.89 791.257C1299.91 792.265 1299.92 1019.12 1299.9 1025.17C1299.88 1033.52 1299.86 1041 1299.86 1053.04C1299.85 1067.28 1299.83 1067.88 1299.21 1068.88C1298.3 1070.36 1298.39 1071.35 1299.56 1072.45C1300.11 1072.98 1300.89 1074.06 1301.31 1074.87C1301.72 1075.68 1302.29 1076.54 1302.57 1076.77C1302.85 1077.01 1303.3 1077.94 1303.57 1078.85C1303.84 1079.76 1304.47 1081.11 1304.98 1081.86C1305.7 1082.93 1305.95 1083.75 1306.13 1085.69C1306.38 1088.37 1306.97 1090.11 1307.98 1091.21C1308.72 1092 1308.69 1092.27 1307.55 1096.28C1306.92 1098.47 1306.67 1098.91 1305.75 1099.45C1304.26 1100.34 1304.33 1101.31 1305.97 1102.4C1306.68 1102.86 1307.34 1103.57 1307.44 1103.97C1308.3 1107.48 1309.11 1111.52 1308.99 1111.71C1308.91 1111.85 1273.84 1111.96 1231.06 1111.96H1153.28L1152.06 1112.78C1151.39 1113.24 1149.61 1114.18 1148.1 1114.88C1146.59 1115.57 1144.75 1116.63 1144 1117.23C1142.29 1118.62 1141.46 1119.04 1139.44 1119.58C1137.18 1120.18 1135.26 1120.12 1132.87 1119.37C1130.08 1118.5 1126.87 1118.55 1122.59 1119.53C1112.24 1121.89 1111.12 1121.99 1108.54 1120.85C1107.52 1120.4 1106.17 1120.02 1105.54 1120.02C1104.53 1120.02 1104.36 1120.15 1103.94 1121.23C1103.07 1123.47 1102.65 1124.05 1101.44 1124.7C1100.78 1125.06 1100.01 1125.67 1099.74 1126.07C1099.47 1126.47 1099.03 1126.8 1098.76 1126.8C1098.49 1126.8 1097.07 1127.3 1095.59 1127.91L1092.91 1129.02L1084.93 1128.66L1082.75 1129.82C1080.99 1130.77 1080.22 1130.99 1078.76 1130.99C1077.23 1130.99 1076.2 1131.33 1071.92 1133.23C1069.14 1134.46 1065.71 1135.81 1064.3 1136.22C1061.89 1136.91 1061.57 1137.11 1059.46 1139.27C1057.39 1141.38 1057.06 1141.59 1055.59 1141.77C1053.43 1142.03 1044.1 1143.94 1043.49 1144.25C1042.86 1144.56 1038.21 1145.19 1036.52 1145.19C1035.3 1145.19 1034.93 1144.96 1032.33 1142.58C1029.44 1139.94 1028.01 1139.05 1026.65 1139.07C1025.52 1139.08 1023.47 1140.13 1022.05 1141.44C1020.49 1142.88 1019.51 1143.42 1018.01 1143.69C1017.39 1143.81 1015.72 1144.4 1014.31 1145.02C1012.89 1145.64 1011.5 1146.15 1011.22 1146.15C1010.59 1146.16 1007.3 1148.28 1005.79 1149.66C1004.51 1150.83 1004.34 1150.85 1002.66 1150.15C1001.76 1149.77 1000.01 1149.58 996.37 1149.47C991.275 1149.32 989.964 1149.52 989.964 1150.48C989.964 1151.08 987.561 1152.99 985.972 1153.64C985.241 1153.94 984.096 1154.19 983.426 1154.2C982.408 1154.22 982.157 1154.09 981.894 1153.39C981.721 1152.94 981.577 1152.1 981.574 1151.54C981.572 1150.97 981.173 1149.74 980.688 1148.8C979.862 1147.19 979.675 1147.03 977.71 1146.34C976.558 1145.94 974.657 1145.15 973.487 1144.59C971.032 1143.42 969.726 1143.33 967.762 1144.23C965.678 1145.17 963.936 1145.13 962.31 1144.11C961.565 1143.64 960.804 1143.25 960.619 1143.25C960.435 1143.25 959.742 1142.9 959.081 1142.46C956.616 1140.83 956.246 1140.88 945.573 1144.07L941.973 1145.15L938.801 1144.34C934.013 1143.13 932.067 1143.57 929.772 1146.36C929.091 1147.19 928.063 1148.32 927.487 1148.89C926.101 1150.24 921.616 1152.68 918.476 1153.78C917.092 1154.27 915.344 1155.13 914.592 1155.7C913.446 1156.56 912.831 1156.76 910.784 1156.96C908.696 1157.15 908.206 1157.32 907.396 1158.11C906.876 1158.62 905.833 1159.2 905.078 1159.39C904.323 1159.59 902.783 1160.03 901.656 1160.38C898.419 1161.36 897.022 1161.22 894.466 1159.68C892.316 1158.38 892.232 1158.36 888.965 1158.3C886.288 1158.25 885.335 1158.09 884.035 1157.5C883.148 1157.1 881.479 1156.65 880.326 1156.5C879.147 1156.35 877.688 1155.91 876.989 1155.5C876.138 1155 874.968 1154.7 873.265 1154.55C870.958 1154.34 870.587 1154.2 868.056 1152.55C866.558 1151.57 864.966 1150.68 864.519 1150.57C863.604 1150.35 862.533 1149.44 861.711 1148.19C861.259 1147.5 861.181 1146.78 861.284 1144.25C861.598 1136.55 861.539 1135.77 860.495 1133.71C859.577 1131.9 859.531 1131.62 859.611 1128.38C859.676 1125.75 859.571 1124.67 859.156 1123.7C858.848 1122.98 858.52 1121.03 858.394 1119.16C858.202 1116.34 858.044 1115.68 857.237 1114.36C855.122 1110.91 854.736 1110.12 853.718 1107.15C852.489 1103.57 851.517 1102.34 848.481 1100.53C847.372 1099.87 846.321 1099.06 846.145 1098.73C845.588 1097.69 844.833 1097.12 844.013 1097.12C842.8 1097.12 840.942 1096 839.78 1094.58C838.454 1092.95 835.765 1091.4 833.46 1090.94C831.784 1090.6 831.58 1090.63 830.281 1091.4C829.518 1091.85 828.355 1092.8 827.698 1093.5C826.221 1095.07 825.592 1095.18 819.263 1094.99C815.135 1094.87 814.345 1094.76 813.567 1094.21C812.124 1093.18 811.226 1090.93 811.065 1087.94C810.898 1084.88 810.395 1083.86 808.203 1082.16C806.909 1081.15 806.462 1080.98 805.004 1080.98C804.072 1080.98 802.435 1081.21 801.367 1081.48C799.632 1081.93 799.13 1081.93 796.678 1081.5C795.168 1081.24 793.63 1080.86 793.259 1080.66C792.489 1080.25 791.971 1079.09 791.971 1077.79C791.971 1077.15 791.743 1076.79 791.169 1076.53C790.338 1076.15 789.391 1076.31 789.391 1076.84C789.391 1077 788.895 1077.43 788.289 1077.78C787.682 1078.14 787.036 1078.86 786.854 1079.39C786.465 1080.5 785.924 1080.57 784.482 1079.69C783.901 1079.34 783.353 1079.05 783.265 1079.05C783.176 1079.05 782.017 1080.06 780.689 1081.3C779.361 1082.54 777.874 1083.64 777.385 1083.74C775.246 1084.21 773.508 1082.88 770.833 1078.7C769.281 1076.28 768.781 1076.04 766.562 1076.67C764.649 1077.21 764.239 1077.63 764.239 1079.09C764.239 1079.87 764.089 1080.34 763.836 1080.34C763.615 1080.35 763.107 1080.43 762.707 1080.54C761.766 1080.79 761.764 1080.29 762.69 1075.29C763.346 1071.75 763.395 1070.57 763.353 1059.37C763.325 1052.12 763.154 1046.16 762.925 1044.48C762.506 1041.41 762.735 1038.72 763.415 1038.72C763.649 1038.72 764.239 1039.24 764.725 1039.88C765.548 1040.96 765.583 1041.13 765.218 1042.23C764.869 1043.29 764.905 1043.58 765.539 1044.8C766.137 1045.94 766.235 1046.57 766.141 1048.65C765.839 1055.33 766.493 1067.74 767.194 1068.61C767.359 1068.82 768.25 1069.05 769.172 1069.12C770.095 1069.19 771.067 1069.31 771.333 1069.39C771.671 1069.49 771.849 1069.25 771.924 1068.59C772.1 1067.05 771.696 1065.58 771.051 1065.41C770.644 1065.31 770.408 1064.85 770.285 1063.94C770.188 1063.21 769.803 1062.23 769.431 1061.75C768.87 1061.04 768.754 1060.45 768.754 1058.29V1055.69L769.895 1056.8C770.99 1057.86 771.07 1057.89 771.902 1057.42C772.66 1056.99 773.061 1056.42 773.895 1054.57C774.005 1054.32 774.599 1053.96 775.214 1053.75C776.236 1053.42 776.328 1053.28 776.294 1052.18C776.27 1051.38 775.872 1050.39 775.125 1049.27C774.503 1048.33 773.892 1047.1 773.77 1046.54C773.647 1045.98 772.979 1044.97 772.286 1044.3C770.911 1042.96 770.207 1040.98 771.107 1040.98C771.382 1040.98 772.038 1041.34 772.565 1041.78C774.323 1043.26 774.714 1042.69 773.511 1040.4L772.784 1039.01L773.556 1038.43C774.153 1037.97 774.281 1037.65 774.12 1037.01C773.863 1035.99 774.154 1035.68 777.1 1033.9C778.823 1032.86 779.59 1032.57 780.199 1032.72C781.493 1033.05 781.185 1032.2 779.569 1030.99C778.778 1030.39 777.901 1029.42 777.619 1028.83C776.947 1027.41 776.028 1027.43 774.699 1028.88C773.556 1030.13 772.791 1030.26 770.81 1029.57C770.122 1029.33 769.379 1029.2 769.157 1029.28C768.661 1029.45 768.634 1030.47 769.102 1031.35C769.294 1031.71 769.379 1032.07 769.292 1032.16C769.065 1032.38 761.247 1028.46 760.823 1027.9C760.628 1027.65 760.374 1025.73 760.257 1023.64C760.14 1021.55 759.74 1018.47 759.37 1016.78C758.366 1012.22 758.236 1010.65 758.861 1010.65C759.141 1010.65 759.52 1010.4 759.703 1010.08C760.191 1009.26 760.618 1010.05 760.863 1012.26L760.882 1012.43C761.01 1013.59 761.073 1014.15 761.357 1014.56C761.626 1014.95 762.095 1015.21 763.01 1015.7L763.148 1015.78C765.446 1017.02 766.177 1016.67 764.625 1015.07C763.982 1014.41 763.594 1013.68 763.594 1013.13C763.594 1012.21 764.586 1010.97 765.323 1010.97C765.565 1010.97 766.311 1010.54 766.98 1010C767.65 1009.47 768.504 1009.03 768.879 1009.03C769.253 1009.02 771.519 1008.21 773.913 1007.23C776.307 1006.25 778.883 1005.22 779.637 1004.95C780.39 1004.68 781.007 1004.35 781.007 1004.22C781.007 1003.92 777.584 1003.21 774.88 1002.95C773.703 1002.83 772.435 1002.5 771.987 1002.18C771.418 1001.78 770.566 1001.62 769.011 1001.62H766.831L767.023 1000.22C767.24 998.635 766.748 997.417 765.373 996.131C764.593 995.401 764.202 995.314 761.25 995.211C758.409 995.113 757.935 995.173 757.567 995.676C756.609 996.988 757.554 1003.42 758.914 1004.84C759.36 1005.3 759.725 1005.78 759.725 1005.91C759.725 1006.03 759.058 1006.13 758.244 1006.13C757.251 1006.13 756.493 1006.35 755.943 1006.78C755.492 1007.13 755.034 1007.42 754.925 1007.42C754.816 1007.42 754.687 1004.55 754.638 1001.05C754.453 987.715 753.18 977.744 750.616 969.559C749.637 966.434 749.596 966.369 748.256 965.794C747.053 965.278 746.809 964.986 746.193 963.328C745.808 962.294 745.001 960.939 744.399 960.317C743.385 959.271 743.278 958.957 742.959 956.123C742.771 954.438 742.476 952.188 742.305 951.123C742.135 950.058 741.91 947.373 741.805 945.154C741.68 942.495 741.356 940.132 740.855 938.218C740.437 936.621 739.729 933.427 739.281 931.12C738.834 928.813 737.966 925.328 737.353 923.377C736.74 921.425 736.072 918.993 735.867 917.973C735.662 916.953 735.306 915.929 735.075 915.698C734.845 915.468 734.434 914.851 734.163 914.327C733.892 913.803 733.243 912.995 732.721 912.531C732.173 912.043 731.534 910.956 731.207 909.956C730.459 907.667 729.632 906.563 728.07 905.766C727.361 905.404 726.538 904.649 726.243 904.088C725.477 902.636 723.778 900.954 723.077 900.952C721.313 900.949 719.442 898.683 718.948 895.953C718.819 895.243 718.377 893.922 717.964 893.019C716.847 890.57 716.192 888.12 716.192 886.387C716.192 885.539 715.954 884.15 715.662 883.3C715.302 882.25 715.151 880.841 715.19 878.895C715.256 875.608 714.756 873.536 713.102 870.25C712.496 869.046 712 867.916 712 867.738C712 867.561 712.67 866.745 713.49 865.926L714.98 864.435L714.825 861.642C714.703 859.42 714.794 858.534 715.27 857.305C715.6 856.456 715.87 855.286 715.87 854.707C715.87 854.05 716.225 853.17 716.813 852.369C717.332 851.663 717.852 850.705 717.969 850.239C718.229 849.204 717.661 848.041 716.895 848.041C716.276 848.041 713.272 845.104 712.652 843.893C712.124 842.862 712.552 842.5 714.653 842.201C717.887 841.74 718.383 841.823 719.587 843.028C720.605 844.046 720.865 844.144 722.518 844.124C723.897 844.107 724.535 844.264 725.179 844.778C725.646 845.15 726.68 845.849 727.478 846.332C728.276 846.815 731.077 848.629 733.701 850.363C736.83 852.432 739.106 853.7 740.312 854.047C741.323 854.339 743.298 855.153 744.7 855.856C746.549 856.782 747.525 857.093 748.248 856.985C749.647 856.776 751.537 857.413 753.776 858.847C754.831 859.523 756.607 860.487 757.723 860.988C759.321 861.706 759.826 862.109 760.095 862.881C760.343 863.594 761.022 864.204 762.58 865.115C765.083 866.58 765.262 866.64 768.984 867.268C774.001 868.115 782.633 868.509 786.973 868.09L786.988 868.089H786.99C791.039 867.698 792.343 867.572 793.367 868.048C793.854 868.274 794.278 868.635 794.902 869.169L794.908 869.174C796.384 870.434 796.802 870.626 798.079 870.624C798.979 870.624 799.958 870.373 800.605 869.979C801.962 869.151 803.001 869.162 803.771 870.013C804.774 871.123 805.963 871.585 807.267 871.373C808.167 871.227 808.671 871.337 809.33 871.825C810.632 872.789 811.499 872.983 814.866 873.067C816.551 873.109 819.116 873.248 820.567 873.376C824.437 873.719 825.837 873.417 827.806 871.817C828.721 871.073 829.79 870.214 830.182 869.907C830.603 869.578 831.779 869.264 833.051 869.14L835.207 868.931L836.403 870.286C837.061 871.031 838.289 872.343 839.131 873.201C840.648 874.746 840.663 874.783 840.663 876.899C840.663 878.521 840.85 879.402 841.441 880.557C842.522 882.675 843.499 883.665 844.051 883.207C844.407 882.911 844.37 882.475 843.834 880.69C843.478 879.502 843.112 878.069 843.021 877.506C842.866 876.548 842.937 876.457 844.097 876.109C844.78 875.904 846.391 875.656 847.677 875.558L850.015 875.38V877.319C850.015 879.429 850.188 879.693 851.949 880.264C854.113 880.966 855.22 883.953 854.252 886.482C853.83 887.585 854.09 887.817 855.044 887.191C856.356 886.331 857.136 884.7 857.206 882.671C857.26 881.094 857.18 880.793 856.676 880.69C856.35 880.624 855.493 879.978 854.771 879.256C852.956 877.441 852.912 875.963 854.602 873.691C856.472 871.178 857.14 870.626 858.307 870.626C858.884 870.626 860.007 870.452 860.802 870.239C861.597 870.026 862.337 869.942 862.446 870.051C862.556 870.161 862.719 870.806 862.809 871.486C862.99 872.849 862.593 873.479 860.737 874.777C860.16 875.179 859.689 875.707 859.689 875.949C859.689 876.728 862.661 882.611 863.15 882.798C863.876 883.077 864.193 882.269 864.198 880.121C864.202 878.443 864.317 878.063 865.001 877.469C865.439 877.087 865.891 876.408 866.003 875.959C866.134 875.435 866.433 875.143 866.836 875.143C867.865 875.143 868.614 877.419 868.827 881.188C868.999 884.246 868.966 884.516 868.378 884.831C867.861 885.108 867.604 885.02 866.992 884.359C866.341 883.656 866.161 883.604 865.66 883.971C865.191 884.314 865.125 884.637 865.314 885.646C865.665 887.522 866.278 888.487 867.729 889.448C868.347 889.857 868.704 890.087 868.862 890.415C869.078 890.859 868.928 891.482 868.569 892.972L868.55 893.049C867.869 895.87 867.873 895.882 869.319 895.637L870.565 895.427L870.926 896.862C871.17 897.83 871.665 898.629 872.45 899.318C873.117 899.904 873.539 900.529 873.44 900.787C873.215 901.374 871.211 901.917 869.263 901.919L867.713 901.921L867.812 903.742C867.905 905.439 867.847 905.608 866.961 906.242C866.438 906.616 865.405 907.467 864.665 908.134C863.363 909.308 863.315 909.421 863.17 911.697C863.052 913.536 862.814 914.396 862.079 915.647C861.239 917.078 861.146 917.509 861.199 919.736L861.259 922.226L860.098 922.444C859.461 922.564 858.708 922.517 858.427 922.341C857.66 921.861 857.619 920.342 858.338 919.044C859.785 916.433 860.354 910.926 859.648 906.364C859.141 903.082 859.132 903.059 858.556 903.538C858.221 903.816 858.074 904.582 858.068 906.074C858.06 908.436 857.669 910.524 857.134 911.059C856.572 911.621 856.03 910.805 855.833 909.102C855.603 907.095 854.726 906.805 854.237 908.574C853.843 910.001 854.306 912.307 855.225 913.499C855.552 913.922 855.819 914.621 855.819 915.052C855.819 915.742 855.694 915.824 854.771 915.735C853.817 915.642 853.714 915.72 853.622 916.601C853.434 918.398 851.57 925.629 851.106 926.361C850.852 926.76 850.491 927.087 850.302 927.087C849.473 927.087 845.445 931.144 844.564 932.867C842.145 937.598 840.732 940.417 839.714 942.543C839.103 943.82 838.116 945.328 837.52 945.896C836.204 947.152 835.504 948.399 835.504 949.487C835.504 949.936 834.933 951.722 834.236 953.455C833.539 955.189 832.791 957.321 832.573 958.193C832.198 959.692 832.216 959.809 832.908 960.37C833.844 961.128 834.889 961.125 835.863 960.36C836.54 959.829 836.869 959.794 838.599 960.074C840.734 960.419 841.078 960.316 845.178 958.11C846.153 957.586 848.197 956.568 849.72 955.85C853.091 954.26 856.978 950.962 855.481 950.962C855.296 950.962 854.011 951.616 852.626 952.415C851.241 953.214 849.312 954.142 848.34 954.477C845.873 955.326 844.565 956.038 843.161 957.297C841.708 958.601 841.354 958.626 839.522 957.551C838.742 957.094 837.773 956.747 837.369 956.781C835.538 956.93 835.527 956.916 835.966 955.075C836.509 952.803 837.198 951.251 838.77 948.761C839.493 947.615 840.672 945.5 841.389 944.061C842.106 942.622 843.324 940.484 844.096 939.311C844.868 938.137 845.5 937.045 845.5 936.884C845.5 936.326 847.523 934.137 848.761 933.356C849.554 932.854 850.266 932.018 850.734 931.039C851.295 929.864 851.828 929.311 853.02 928.668C853.874 928.207 854.852 927.372 855.191 926.813C855.893 925.66 856.172 925.59 857.254 926.299C857.972 926.77 858.163 926.738 860.225 925.805C860.788 925.55 861.351 925.291 861.818 925.072C862.357 924.819 862.771 924.62 862.913 924.542C863.277 924.342 863.416 923.567 863.474 921.426C863.586 917.299 864.656 914.818 867.339 912.461C867.92 911.951 868.395 911.273 868.395 910.953C868.395 909.727 874.45 902.705 875.273 902.977C875.48 903.046 875.727 903.744 875.82 904.528C876.017 906.184 876.311 906.761 876.959 906.761C877.515 906.761 877.582 905.208 877.099 903.532C876.92 902.912 876.679 901.171 876.562 899.663L876.35 896.92L874.743 895.434C873.8 894.562 873.231 893.796 873.365 893.579C873.749 892.957 874.367 893.165 875.104 894.162C875.836 895.153 877.447 895.786 879.244 895.789C880.338 895.791 880.649 896.218 880.649 897.713C880.649 898.208 880.874 899.249 881.15 900.026C881.426 900.802 881.662 902.011 881.673 902.712C881.684 903.413 881.99 904.554 882.351 905.248C882.743 906 883.096 907.502 883.227 908.974C883.347 910.33 883.687 911.904 883.982 912.471C884.613 913.687 884.673 914.865 884.131 915.407C883.596 915.943 881.506 915.892 880.115 915.311C878.564 914.662 878.391 914.693 878.391 915.62C878.391 916.898 879.454 919.985 879.909 920.029C879.951 920.033 879.996 920.038 880.044 920.044C880.121 920.054 880.204 920.066 880.285 920.079C880.424 920.102 880.557 920.127 880.649 920.15C880.826 920.195 881.189 920.249 881.455 920.271C882.035 920.32 882.088 921.813 881.612 924.667C881.335 926.322 881.363 926.65 881.802 926.926L881.81 926.93C882.63 927.444 882.984 927.667 883.041 927.949C883.084 928.164 882.952 928.414 882.721 928.855L882.718 928.861C882.14 929.962 882.309 931.909 883.078 933.007C883.843 934.1 883.663 934.507 882.415 934.507C881.538 934.507 880.96 934.213 879.88 933.217C878.001 931.484 876.723 931.544 876.407 933.378C876.315 933.908 876.451 934.007 877.166 933.933C878.332 933.812 878.762 934.655 879.188 937.895L879.528 940.476L880.975 940.93C881.771 941.179 882.521 941.534 882.642 941.719C882.916 942.14 882.2 943.884 880.956 945.824C880.288 946.865 880.004 947.713 880.004 948.664C880.004 949.41 879.696 950.622 879.321 951.359C878.741 952.496 878.662 953.091 878.793 955.298C878.926 957.529 878.814 958.341 878.002 961.013L877.056 964.127L877.752 965.491C878.616 967.185 878.411 968.714 877.192 969.673C876.046 970.575 875.427 970.385 875.081 969.029C874.7 967.53 874.406 967.281 873.608 967.78C873.075 968.113 872.566 968.12 871.071 967.813C870.043 967.602 868.875 967.516 868.476 967.622C867.41 967.904 867.527 966.922 868.858 964.413C869.605 963.004 869.903 962.084 869.772 961.586C869.617 960.99 869.878 960.588 871.121 959.509C872.619 958.208 872.656 958.133 872.435 956.825C872.194 955.397 871.788 955.084 871.472 956.082C871.367 956.413 869.994 957.65 868.422 958.829C866.113 960.56 865.524 961.174 865.363 962.017C865.253 962.591 864.729 963.916 864.199 964.961C862.85 967.623 862.893 969.157 864.364 970.878C865.725 972.468 865.759 972.976 864.607 974.484C863.877 975.441 863.713 976.003 863.668 977.701C863.631 979.079 863.447 979.926 863.109 980.264C862.651 980.722 862.53 980.699 861.802 980.015C861.361 979.601 860.771 978.573 860.492 977.732C860.213 976.891 859.695 975.941 859.341 975.621C858.634 974.981 857.618 972.871 857.284 971.353C857.1 970.514 857.246 970.209 858.356 969.109C859.789 967.691 859.886 967.328 860.154 962.383C860.316 959.396 860.276 959.076 859.677 958.533C859.317 958.208 858.865 957.312 858.671 956.543C858.06 954.117 857.754 954.682 857.729 958.283C857.699 962.575 857.317 963.744 855.551 964.937C854.294 965.787 854.207 965.944 854.207 967.359C854.207 968.191 854.067 969.36 853.896 969.957C853.495 971.355 854.063 972.774 855.512 973.994C856.578 974.891 856.581 974.9 856.184 976.386C855.509 978.911 855.388 978.956 851.385 978.19C849.907 977.908 850.049 978.516 851.708 979.573C854.303 981.229 854.528 981.544 854.535 983.524C854.543 985.854 855.238 988.549 855.831 988.549C856.08 988.549 856.474 988.186 856.706 987.742C857.105 986.981 857.099 986.619 856.61 982.657C856.551 982.177 856.758 981.804 857.217 981.565C857.601 981.365 858.188 980.917 858.521 980.569C859.413 979.637 859.677 980.31 859.689 983.548C859.705 988.039 860.732 988.552 860.931 984.167C860.995 982.762 861.157 981.612 861.292 981.612C861.427 981.612 862.005 982.851 862.577 984.366C863.733 987.433 864.266 987.953 866.568 988.269C868.293 988.506 869.107 988.01 869.828 986.284C870.055 985.74 870.986 984.671 871.898 983.908C872.809 983.145 873.555 982.303 873.555 982.037C873.555 981.772 874.196 980.931 874.98 980.168C876.147 979.034 876.448 978.496 876.633 977.212C876.868 975.589 878.777 970.382 879.601 969.116C879.961 968.563 880.018 967.869 879.843 966.131C879.677 964.473 879.718 963.867 879.998 963.867C880.208 963.867 881.255 964.806 882.323 965.954C883.391 967.101 884.576 968.134 884.956 968.25C885.336 968.365 885.961 968.842 886.344 969.309L887.042 970.159L887.932 969.497C889.828 968.087 889.777 966.885 887.797 966.372C885.788 965.851 886.572 965.136 891.935 962.595C892.323 962.412 892.67 962.25 892.982 962.106C894.425 961.437 895.096 961.126 895.396 960.602C895.656 960.145 895.634 959.527 895.593 958.37L895.592 958.362C895.582 958.077 895.571 957.76 895.562 957.404L895.481 954.042L893.679 951.331C892.218 949.135 891.917 948.46 892.093 947.775C892.713 945.356 892.644 944.699 891.605 943.138C890.831 941.977 890.514 941.04 890.292 939.267C890.11 937.815 889.755 936.596 889.355 936.053C888.511 934.909 888.542 934.456 889.523 933.533C890.243 932.857 890.455 932.81 891.377 933.126C893.535 933.866 893.798 933.887 894.32 933.366C895.589 932.095 894.834 930.955 891.341 928.87C889.407 927.716 888.069 926.204 888.067 925.17C888.065 924.49 890.627 920.36 891.378 919.835C892.228 919.239 892.185 916.804 891.254 912.884C890.325 908.975 890.501 908.26 893.038 905.646C895.028 903.595 895.09 903.479 895.313 901.402C895.438 900.227 895.812 898.443 896.142 897.436C896.472 896.429 896.841 894.989 896.962 894.234C897.205 892.711 898.03 891.92 899.375 891.92C900.321 891.92 902.681 890.348 903.204 889.37C903.391 889.021 903.544 888.009 903.544 887.121C903.544 885.778 903.706 885.329 904.511 884.447C905.043 883.864 905.478 883.116 905.478 882.784C905.478 882.246 905.305 882.204 903.885 882.399C901.734 882.695 901.069 882.421 900.305 880.922C899.948 880.223 899.07 879.226 898.354 878.706C897.637 878.187 896.299 876.796 895.38 875.616C894.461 874.436 893.44 873.139 893.112 872.734C892.557 872.051 892.543 871.755 892.902 868.489C893.266 865.177 893.248 864.857 892.583 862.802L891.879 860.624H890.264C889.169 860.624 888.359 860.418 887.748 859.983C886.957 859.419 886.8 859.4 886.448 859.824C886.13 860.207 886.13 860.598 886.447 861.73C886.917 863.412 886.766 863.751 885.389 864.106C884.455 864.347 884.347 864.503 884.257 865.743C884.141 867.328 884.967 868.938 887.094 871.271C889.457 873.864 891.807 876.892 892.33 878.018C893.333 880.175 892.037 880.789 890.956 878.669C890.588 877.947 889.533 876.532 888.612 875.524C887.69 874.516 886.471 873.12 885.902 872.423C884.945 871.251 884.804 871.184 884.032 871.536C883.573 871.745 882.997 871.916 882.752 871.916C881.982 871.916 881.294 870.943 881.294 869.852C881.294 869.275 880.931 867.764 880.487 866.494C879.591 863.926 879.519 862.916 880.033 860.119C880.508 857.54 880.745 857.306 882.616 857.563C884.017 857.756 884.192 857.704 884.691 856.941C885.395 855.866 886.43 855.869 888.064 856.951C888.765 857.416 889.556 857.712 889.822 857.61C890.394 857.391 892.257 853.417 892.257 852.418C892.257 851.625 890.338 849.654 888.826 848.893C888.27 848.613 886.761 847.363 885.473 846.115C883.669 844.367 882.919 843.847 882.199 843.847C880.319 843.847 878.826 841.433 878.492 837.854C878.333 836.155 878.195 835.781 877.725 835.781C877.17 835.781 874.844 838.188 874.844 838.763C874.844 838.919 875.078 839.762 875.364 840.636C875.65 841.51 875.816 842.772 875.734 843.439C875.512 845.243 875.938 845.995 877.682 846.879C879.274 847.687 881.062 849.439 881.682 850.799C882.17 851.871 881.785 852.964 880.693 853.61C879.432 854.355 878.927 854.32 877.498 853.384C875.048 851.781 873.071 852.134 873.071 854.175C873.071 855.558 872.227 855.859 871.684 854.668C870.812 852.752 869.642 854.344 870.348 856.486C870.879 858.093 870.706 858.256 867.564 859.13C866.187 859.513 865.01 859.975 864.95 860.157C864.889 860.34 865.032 860.753 865.268 861.075C865.669 861.624 865.891 861.635 868.659 861.243C871.492 860.842 871.662 860.852 872.508 861.484C874.109 862.679 876.016 865.84 876.264 867.712C876.388 868.648 876.759 870.124 877.088 870.992C877.574 872.271 877.62 872.75 877.327 873.525C877.024 874.329 877.086 874.751 877.718 876.183C879.067 879.238 879.681 881.345 879.681 882.917C879.681 884.621 880.123 885.163 880.887 884.399C881.47 883.815 881.599 880.785 881.193 877.159C880.953 875.009 880.98 874.82 881.525 874.82C882.544 874.82 883.46 875.712 885.276 878.471C887.088 881.224 887.786 881.762 890.005 882.117C891.617 882.375 891.807 882.636 892.028 884.892C892.151 886.152 892.462 887.072 893.008 887.796C893.572 888.543 893.829 889.33 893.881 890.468C894.002 893.163 893.917 893.525 893.08 893.907C892.645 894.105 892.139 894.7 891.954 895.229C891.673 896.037 891.503 896.153 890.89 895.954C889.967 895.653 889.068 895.653 888.152 895.951C887.564 896.143 887.372 896.028 887.104 895.323C886.923 894.847 886.776 893.841 886.776 893.085C886.776 891.261 885.911 888.802 885.06 888.205C883.934 887.417 883.045 887.636 881.725 889.03C880.817 889.989 880.276 890.309 879.683 890.24C878.917 890.15 878.88 890.054 878.971 888.371L879.067 886.596L877.552 885.649C875.173 884.16 874.431 883.357 874.689 882.546C875.064 881.363 874.896 878.542 874.392 877.57C873.963 876.744 873.97 876.527 874.454 875.492C875.552 873.142 874.767 869.338 872.904 867.978C872.148 867.426 871.98 867.419 870.485 867.873C869.602 868.141 868.845 868.362 868.802 868.364C868.793 868.364 868.773 868.339 868.745 868.291C868.721 868.25 868.69 868.192 868.654 868.12C868.543 867.9 868.385 867.55 868.221 867.157C867.621 865.721 866.402 864.382 864.848 863.454C863.091 862.405 861.946 861.216 861.946 860.442C861.946 859.443 862.771 857.589 864.032 855.755C864.626 854.89 865.371 853.491 865.686 852.645C866.001 851.799 866.82 850.25 867.504 849.204C869.384 846.333 869.684 845.629 870.034 843.272C870.211 842.08 870.437 840.65 870.535 840.094C870.638 839.517 870.563 838.99 870.361 838.865C870.143 838.731 870.007 837.429 870.007 835.488C870.007 833.75 869.839 831.844 869.633 831.253L869.258 830.177L868.58 831.608C868.116 832.588 867.702 833.039 867.266 833.039C866.498 833.039 866.324 832.331 866.614 830.393C866.798 829.168 866.983 828.89 867.855 828.528C869.49 827.848 873.826 827.212 874.208 827.595C874.389 827.776 874.673 828.762 874.84 829.786C875.273 832.449 875.47 832.928 876.081 832.812C876.486 832.735 876.658 832.245 876.779 830.81C876.894 829.46 877.106 828.807 877.514 828.555C878.259 828.093 878.575 828.584 878.846 830.625C879.132 832.782 880.042 833.845 881.604 833.845C882.315 833.845 883.141 833.597 883.562 833.256C884.279 832.675 884.284 832.621 883.903 829.465C883.249 824.055 882.911 823.236 880.576 821.403C878.871 820.065 878.663 819.799 879.254 819.713C880.201 819.575 882.649 820.737 883.15 821.563C883.65 822.385 884.404 822.408 885.573 821.637C886.934 820.739 888.065 819.013 888.065 817.836C888.065 816.931 887.708 816.481 885.356 814.43C883.865 813.131 882.563 811.884 882.462 811.66C882.25 811.191 882.877 809.648 883.28 809.648C883.997 809.648 883.473 807.68 882.422 806.421C881.802 805.678 881.294 804.932 881.294 804.765C881.294 804.597 881.584 803.891 881.939 803.195C882.905 801.299 882.783 800.151 881.482 798.887C880.056 797.501 878.574 796.797 877.512 797C876.521 797.189 873.84 799.783 872.327 802.015C871.321 803.5 871.233 803.554 870.557 803.108C869.459 802.382 869.486 800.947 870.634 799.08C871.837 797.124 871.871 796.341 870.787 795.489C869.551 794.516 868.752 794.352 868.105 794.939C866.866 796.061 866.56 795.637 866.385 792.554C866.215 789.574 865.699 788.208 864.587 787.793C864.287 787.681 863.851 787.324 863.617 786.998C863.383 786.673 863.055 786.491 862.889 786.594C862.722 786.697 862.499 786.554 862.393 786.277C862.286 786 862.057 785.773 861.882 785.773C861.477 785.773 860.358 784.44 860.344 783.939C860.338 783.73 860.805 783.235 861.381 782.841C862.901 781.801 863.236 781.277 863.236 779.938C863.236 778.498 862.651 778.172 861.084 778.739C860.078 779.103 859.453 779.005 858.872 778.307C850.415 778.316 845.04 778.257 843.872 778.113C837.937 777.384 833.326 772.931 828.776 763.537C824.269 754.233 824.648 752.304 831.694 748.712C838.624 745.179 838.876 742.108 832.246 742.021C828.418 741.97 827.878 741.449 828.276 738.185C828.977 732.432 828.847 728.827 827.748 723.554C827.06 720.248 827.504 717.664 829.171 715.285C831.735 711.627 832.435 706.453 830.368 706.453C829.692 706.453 827.631 708.493 825.787 710.987C823.942 713.48 821.224 715.52 819.743 715.52C818.265 715.52 815.734 716.518 814.119 717.738C811.306 719.864 811.355 719.959 815.307 720.004C818.02 720.036 820.291 721.366 821.945 723.888C824.316 727.505 824.298 727.844 821.602 729.882C819.122 731.755 818.549 731.754 817.268 729.87C816.042 728.066 815.083 728.375 811.621 731.692L807.449 735.686L794.173 729.38C786.87 725.912 780.117 723.075 779.165 723.075C778.212 723.075 775.608 720.908 773.38 718.261C769.68 713.867 769.417 712.723 770.365 705.139C771.128 699.03 772.767 695.045 776.552 690.092C782.136 682.783 783.761 677.176 779.199 680.958C777.825 682.099 775.613 682.858 774.285 682.641C772.823 682.406 770.513 684.639 768.425 688.309C765.036 694.261 764.831 694.365 756.392 694.365C748.532 694.365 747.323 693.894 742.074 688.77C738.92 685.692 736.34 682.326 736.34 681.286C736.34 680.246 733.945 678.261 731.018 676.874C725.064 674.05 719.708 667.474 719.708 662.986C719.708 661.359 721.659 657.575 724.042 654.579C730.433 646.54 732.573 640.588 730.613 636.293C729.155 633.092 727.68 632.648 715.281 631.667C706.604 630.98 701.574 629.946 701.589 628.854C701.601 627.903 704.324 622.365 707.64 616.548C719.882 595.071 721.768 590.237 720.067 584.697C718.891 580.864 719.011 579.016 720.578 576.95C723.175 573.528 723.328 568.936 720.842 569.001C719.804 569.03 717.32 570.409 715.325 572.07C711.979 574.855 711.833 575.538 713.435 580.884C714.391 584.07 715.172 588.152 715.172 589.953C715.172 594.545 708.16 607.87 704.561 610.117C702.776 611.231 701.565 613.635 701.565 616.068C701.565 621.672 699.247 622.61 694.541 618.913C689.1 614.635 686.145 615.008 683.099 620.362C679.601 626.501 676.432 627.433 672.285 623.54C669.613 621.031 666.954 620.326 660.166 620.326C651.639 620.326 646.363 618.642 643.353 614.96C642.521 613.943 638.277 611.962 633.921 610.558C629.565 609.155 625.669 607.47 625.262 606.813C624.267 605.203 628.738 601.325 635.924 597.564C639.512 595.686 640.353 594.854 638.061 595.45C628.912 597.827 626.493 597.851 624.612 595.584C622.082 592.54 624.929 591.922 644.683 591.228C658.13 590.757 659.906 590.355 662.449 587.215C665.378 583.6 666.282 578.017 663.939 578.017C663.202 578.017 661.587 579.562 660.351 581.449C657.912 585.169 646.561 587.527 619.034 590.034C603.946 591.409 601.773 591.012 601.773 586.888C601.773 581.706 569.865 564.306 550.486 558.921C541.373 556.39 540.341 555.619 531.989 545.116C522.545 533.24 522.232 531.72 527.105 521.499C529.736 515.985 529.737 514.555 527.114 514.555C525.969 514.555 524.282 513.652 523.366 512.549C522.086 511.008 522.744 509.772 526.205 507.216C531.42 503.362 532.064 498.054 528.385 489.254C525.129 481.466 524.016 468.1 526.01 460.735C527.646 454.693 528.703 453.878 562.254 432.781L596.814 411.05L587.575 409.853C582.494 409.194 575.57 407.325 572.189 405.698C565.425 402.442 560.139 401.895 558.654 404.296C557.65 405.917 530.753 419.753 525.336 421.435C523.033 422.148 520.169 420.639 514.251 415.591C507.165 409.547 505.445 408.783 498.909 408.783C488.99 408.783 487.917 406.591 491.576 393.806C495.926 378.601 494.84 367.986 488.935 367.986C486.972 367.986 486.754 369.266 487.633 375.654C488.548 382.297 488.248 383.79 485.4 386.821C483.295 389.06 481.695 393.374 480.959 398.796C479.636 408.543 478.648 410.057 475.071 407.827C469.528 404.37 468.497 396.224 471.143 376.803C472.495 366.881 473.217 358.379 472.749 357.912C472.28 357.444 470.261 358.959 468.264 361.282L464.631 365.502L459.154 355.717C453.439 345.504 449.795 336.365 447.653 326.871C446.528 321.888 446.794 320.996 450.052 318.864C452.068 317.544 454.806 313.948 456.135 310.871C457.465 307.795 459.236 303.781 460.072 301.952C460.908 300.122 463.705 297.851 466.288 296.905C471.429 295.024 471.143 294.724 460.561 290.902L456.182 289.321L458.255 257.289L472.558 242.038C480.425 233.651 486.862 226.26 486.862 225.614C486.862 222.702 483.255 225.496 467.425 240.683L450.491 256.926L447.379 269.756C445.667 276.813 443.738 283.534 443.089 284.691C441.63 287.296 430.913 271.186 421.324 251.976C417.705 244.726 410.899 233.698 406.198 227.469C400.285 219.63 397.643 214.746 397.621 211.603C397.603 209.106 396.242 204.098 394.597 200.476C390.331 191.082 390.773 189.021 398.41 182.642C402.152 179.516 405.214 176.295 405.214 175.486C405.214 174.676 401.429 167.334 396.804 159.17L388.395 144.327L402.852 125.474C410.804 115.105 417.31 106.345 417.31 106.008C417.31 105.669 416.118 104.924 414.664 104.352C412.644 103.558 408.924 106.635 398.953 117.351C386.232 131.021 385.779 131.343 381.777 129.519L377.664 127.647L384.258 122.877C395.418 114.8 406.222 102.958 410.966 93.6022C413.456 88.6899 417.263 83.1444 419.425 81.2813C423.604 77.6776 424.353 73.1264 421.846 66.5384C420.919 64.1011 420.866 61.5686 421.708 59.9957C422.594 58.3411 422.386 55.7724 421.119 52.7609C418.278 46.0112 418.4 20.8951 421.285 18.5092C431.47 10.0883 432.995 6.28058 430.095 -3.47757C427.46 -12.3427 426.078 -13.6361 417.776 -15.0036C410.263 -16.2411 408.652 -17.8564 407.984 -24.8252C407.611 -28.7161 406.638 -30.2558 404.175 -30.8632C402.356 -31.3105 398.9 -34.3975 396.497 -37.7217C393.312 -42.1263 389.698 -44.7465 383.172 -47.3832C364.492 -54.9307 349.821 -65.9898 346.376 -75.1194C344.954 -78.8939 344.111 -79.2747 337.212 -79.2747H329.614L329.608 -102.695L316.074 -111.24L319.82 -118.628C321.881 -122.691 323.566 -126.665 323.566 -127.456C323.566 -128.25 321.354 -129.374 318.652 -129.956C315.951 -130.537 311.842 -131.982 309.526 -133.165L305.312 -135.317L308.354 -139.585C314.073 -147.61 314.762 -151.398 311.628 -157.547C303.986 -172.527 294.607 -196.954 291.205 -210.73C289.123 -219.157 285.736 -229.063 283.679 -232.742C281.621 -236.422 279.46 -243.255 278.875 -247.927C277.999 -254.935 276.484 -258.177 270.222 -266.443L262.63 -276.462L264.883 -282.725C267.035 -288.712 266.973 -289.248 263.483 -294.814C261.475 -298.017 257.185 -305.992 253.953 -312.536C250.156 -320.22 245.85 -326.335 241.793 -329.806C238.338 -332.761 232.871 -338.517 229.643 -342.598C224.378 -349.255 223.775 -350.904 223.775 -358.652C223.775 -366.484 223.299 -367.747 218.643 -372.256C215.822 -374.99 213.14 -379.09 212.683 -381.369C212.075 -384.408 209.957 -386.488 204.745 -389.169C195.919 -393.708 193.599 -396.945 196.192 -401.095C198.454 -404.714 198.646 -408.676 196.559 -408.676C194.333 -408.676 194.808 -413.522 197.363 -416.898C200.401 -420.911 200.147 -424.859 196.559 -429.418C194.896 -431.532 193.535 -434.058 193.535 -435.034C193.535 -436.01 190.26 -440.465 186.256 -444.931L178.976 -453.053L167.734 -448.707C160.646 -445.966 152.301 -444.049 145.151 -443.517L133.811 -442.674L133.583 -436.965C133.282 -429.43 130.895 -426.712 125.518 -427.786C125.387 -427.812 125.26 -427.838 125.137 -427.863C123.842 -428.125 122.959 -428.305 122.289 -428.006C120.85 -427.367 120.388 -424.531 118.934 -415.614L118.734 -414.386C118.168 -410.927 115.808 -406.636 112.598 -403.236C107.751 -398.099 106.937 -397.779 101.099 -398.712C95.8497 -399.551 92.1847 -398.672 78.7824 -393.359C69.9629 -389.862 61.3431 -385.759 59.6269 -384.24C57.9093 -382.721 55.2785 -381.478 53.7801 -381.478C51.6285 -381.478 51.2928 -382.193 52.1819 -384.878C52.8018 -386.747 53.5956 -395.418 53.9464 -404.148C54.5693 -419.66 54.4831 -420.17 50.1316 -426.813C47.6822 -430.55 37.7817 -446.361 28.1306 -461.948C13.8015 -485.093 10.5839 -491.341 10.5839 -496.028C10.5839 -500.602 9.51043 -502.806 5.29197 -506.892ZM1090.6 790.76C1090.43 790.862 1090.22 790.822 1090.13 790.671C1090.03 790.521 1090.17 790.397 1090.43 790.397C1090.97 790.397 1091.02 790.499 1090.6 790.76ZM1054.38 905.512C1054.07 905.268 1053.81 905.014 1053.81 904.947C1053.81 904.682 1054.08 904.852 1054.5 905.39C1054.9 905.901 1054.89 905.913 1054.38 905.512ZM1259.62 905.834C1259.11 906.235 1259.1 906.224 1259.5 905.712C1259.75 905.402 1260 905.148 1260.07 905.148C1260.33 905.148 1260.16 905.413 1259.62 905.834ZM835.101 906.157C834.79 905.913 834.536 905.659 834.536 905.592C834.536 905.327 834.801 905.497 835.223 906.035C835.623 906.547 835.612 906.558 835.101 906.157ZM1030.27 921.116C1030.09 921.007 1029.95 920.782 1029.95 920.615C1029.95 920.151 1030.18 920.253 1030.4 920.812C1030.51 921.099 1030.45 921.229 1030.27 921.116ZM1294.93 1053.11C1294.82 1053.22 1294.54 1053.23 1294.31 1053.13C1294.05 1053.03 1294.13 1052.96 1294.5 1052.94C1294.56 1052.94 1294.61 1052.94 1294.65 1052.94C1294.77 1052.95 1294.87 1052.97 1294.92 1053C1294.97 1053.02 1294.97 1053.06 1294.93 1053.11Z" fill="#DDD0C1" fill-opacity="0.25"/>
<path d="M384.132 156.604C382.885 154.275 382.947 152.721 384.376 150.435C385.427 148.753 386.411 147.378 386.564 147.378C386.718 147.378 390.36 153.52 394.659 161.028C401.026 172.146 402.134 175.088 400.636 176.894C399.624 178.112 397.681 179.109 396.32 179.109C394.96 179.109 392.996 180.469 391.957 182.131C389.73 185.696 388.797 185.791 384.911 182.853C381.099 179.972 380.163 165.98 383.532 162.236C385.29 160.283 385.425 159.017 384.132 156.604Z" fill="#DDD0C1" fill-opacity="0.25"/>
<path d="M214.222 176.732C213.599 172.894 214.032 171.219 215.935 170.109C216.177 169.969 216.396 169.837 216.599 169.716C217.447 169.208 217.994 168.881 218.568 168.819C219.6 168.709 220.724 169.456 223.871 171.549C224.055 171.672 224.245 171.798 224.443 171.93C224.696 172.098 224.96 172.273 225.237 172.456C230.115 175.682 232.222 176.203 237.077 175.383C242.622 174.448 243.103 174.67 244.899 179.005C246.533 182.945 246.441 184.192 244.279 187.492C242.883 189.62 240.762 191.735 239.563 192.196C238.364 192.655 237.383 193.639 237.383 194.381C237.383 197.323 241.349 195.436 247.178 189.719C253.737 183.286 262.482 180.185 263.775 183.836C267.511 194.384 267.642 194.573 269.885 192.714C271.552 191.33 273.272 191.289 276.885 192.548C282.894 194.642 292.06 192.448 298.895 187.281C304.66 182.923 305.422 182.816 305.422 186.366C305.422 190.251 294.421 212.289 289.908 217.447C285.476 222.508 281.577 236.263 279.14 255.42C277.062 271.751 273.095 279.835 267.505 279.128C258.495 277.988 255.013 278.212 254.411 279.969C254.004 281.156 255.197 281.858 257.621 281.858C260.43 281.858 261.244 282.475 260.61 284.125C260.023 285.649 257.627 286.391 253.286 286.391C241.016 286.391 237.48 284.948 234.25 278.623C232.608 275.406 229.935 271.943 228.309 270.929C225.417 269.123 225.424 269.045 228.722 267.215C232.056 265.364 232.049 265.344 227.933 265.29C223.45 265.232 222.712 263.882 225.589 261.006C228.568 258.029 232.428 258.918 238.086 263.883C241.025 266.462 243.431 267.766 243.431 266.781C243.431 263.564 232.715 251.831 229.338 251.351C227.231 251.052 226.194 249.97 226.462 248.351C227.048 244.8 224.445 243.638 220.881 245.863C216.873 248.365 214.871 246.174 218.593 243.359C221.421 241.221 221.406 241.156 218.067 241.109C215.757 241.076 214.125 239.739 213.094 237.031C211.381 232.525 213.391 230.113 217.589 231.635C219.452 232.31 219.325 231.745 217.027 229.131C215.122 226.966 214.039 223.501 214.003 219.458C213.958 214.382 213.359 213.046 210.923 212.58C207.389 211.904 205.431 209.364 206.771 207.197C207.29 206.36 207.53 202.722 207.309 199.112C206.99 193.926 207.76 191.43 210.98 187.21C214.196 182.997 214.88 180.785 214.222 176.732Z" fill="#DDD0C1" fill-opacity="0.25"/>
<path d="M364.856 209.529C368.438 207.066 372.292 203.94 373.42 202.581C374.787 200.936 377.283 200.262 380.892 200.564C385.932 200.987 386.491 201.551 388.81 208.541C391.304 216.055 391.301 216.07 387.298 221.73C382.527 228.477 378.222 229.059 372.844 223.684C368.288 219.131 365.884 218.894 364.838 222.892C363.605 227.604 358.342 223.976 358.342 218.415C358.342 214.922 359.692 213.08 364.856 209.529Z" fill="#DDD0C1" fill-opacity="0.25"/>
<path d="M388.582 229.222C388.582 227.755 389.399 225.739 390.397 224.742C393.024 222.116 393.387 222.288 400.149 229.35C408.01 237.56 414.963 247.925 419.945 258.863C424.156 268.105 427.595 273.511 434.488 281.725C438.712 286.757 438.745 286.937 435.913 289.28C434.318 290.599 432.215 293.549 431.241 295.835C430.268 298.121 428.484 299.99 427.279 299.99C423.771 299.99 420.334 295.59 420.334 291.1C420.334 288.469 418.678 285.371 415.798 282.614C413.267 280.191 411.262 276.695 411.262 274.705C411.262 272.327 409.756 270.284 406.735 268.566C401.948 265.844 400.646 262.215 404.458 262.215C405.705 262.215 406.726 261.607 406.726 260.866C406.726 259.096 402.899 257.682 398.111 257.682C393.498 257.682 379.51 247.792 379.51 244.531C379.51 243.258 381.551 239.891 384.046 237.052C386.541 234.213 388.582 230.689 388.582 229.222Z" fill="#DDD0C1" fill-opacity="0.25"/>
<path d="M375.526 261.883C369.786 263.643 369.705 263.575 368.3 255.793C367.283 250.157 367.305 250.127 372.411 250.127C378.18 250.127 385.991 255.169 396.225 265.498C403.501 272.842 410.619 286.814 412.193 296.841C413.125 302.78 412.952 303.404 410.616 302.508C409.172 301.955 406.35 301.501 404.343 301.501C400.149 301.501 391.249 290.589 392.592 287.091C393.519 284.681 385.991 277.444 382.483 277.373C381.207 277.346 378.895 275.179 377.343 272.558C374.61 267.931 374.608 267.73 377.307 265.758C378.837 264.64 381.489 263.705 383.201 263.681C386.187 263.635 386.198 263.566 383.462 261.979C381.453 260.813 379.106 260.784 375.526 261.883Z" fill="#DDD0C1" fill-opacity="0.25"/>
<path d="M268.677 284.046C272.671 281.925 276.586 279.545 277.375 278.758C280.088 276.053 282.138 277.334 284.156 282.991C285.268 286.109 287.445 290.462 288.996 292.668C291.801 296.66 292.669 301.654 290.871 303.451C290.352 303.97 287.239 303.023 283.951 301.347C280.664 299.672 276.497 298.531 274.688 298.812C272.148 299.209 273.462 300.344 280.475 303.813C288.828 307.946 289.583 308.734 290.005 313.775C290.6 320.903 287.342 322.239 279.189 318.209C275.828 316.547 272.742 315.523 272.331 315.936C270.928 317.338 275.928 320.919 281.128 322.237C286.538 323.606 288.993 326.729 285.514 327.817C284.406 328.163 281.627 328.857 279.341 329.358C274.145 330.495 274.027 333.691 278.963 339.552C281.042 342.021 282.743 345.115 282.743 346.427C282.743 349.148 289.575 358.696 293.637 361.65C295.129 362.735 296.351 364.65 296.351 365.904C296.351 367.158 297.085 369.556 297.983 371.233C299.491 374.048 299.819 374.097 302.3 371.853C303.79 370.506 306.092 369.849 307.471 370.378C310.282 371.455 310.844 374.03 308.27 374.03C307.323 374.03 306.931 375.364 307.378 377.072C307.901 379.069 307.202 380.633 305.342 381.628C303.656 382.53 302.87 384.075 303.398 385.45C304.192 387.517 304.555 387.516 306.862 385.428C310.113 382.487 310.752 382.51 314.478 385.698C317.683 388.442 318.563 392.162 316.006 392.162C315.175 392.162 314.494 392.842 314.494 393.673C314.494 394.504 316.195 395.184 318.274 395.184C322.745 395.184 322.975 396.189 319.408 400.156C316.874 402.975 316.906 403.194 320.164 405.37C324.393 408.194 324.537 411.295 320.496 412.576C317.943 413.385 317.583 414.394 318.364 418.549C319.46 424.391 317.381 426.45 314.144 422.724C311.401 419.568 309.425 406.269 311.508 404.982C313.318 403.865 313.469 399.717 311.702 399.717C310.997 399.717 309.682 401.248 308.779 403.117C307.232 406.323 307.134 406.237 307.037 401.606C306.93 396.454 303.911 394.544 303.911 399.628C303.911 401.242 303.301 402.937 302.557 403.397C301.03 404.34 299.375 400.863 299.375 396.714C299.375 394.792 298.541 394.173 296.623 394.675C293.03 395.613 291.228 393.249 287.557 382.788C284.879 375.157 284.793 373.953 286.808 372.282C288.659 370.747 288.704 370.24 287.047 369.568C283.087 367.96 267.109 349.756 266.738 346.428L266.236 341.921C266.167 341.297 265.196 340.788 264.077 340.788C260.991 340.788 256.553 335.164 257.563 332.533C258.055 331.256 259.837 330.211 261.528 330.211C265.238 330.211 265.621 326.392 262.046 325.022C260.5 324.429 258.983 324.96 258.192 326.371C255.105 331.885 247.247 325.294 248.927 318.6C249.554 316.105 249.155 315.1 247.536 315.1C245.418 315.1 243.431 312.116 243.431 308.933C243.431 308.169 245.771 307.545 248.634 307.545C255.014 307.545 256.685 305.285 253.173 301.406C251.385 299.433 248.535 298.479 244.427 298.479C240.251 298.479 237.232 297.446 234.834 295.194C228.249 289.011 230.006 287.902 246.375 287.902C259.594 287.902 262.293 287.435 268.677 284.046Z" fill="#DDD0C1" fill-opacity="0.25"/>
<path d="M443.948 294.622C443.43 293.269 443.387 291.544 443.854 290.788C445.253 288.526 448.858 289.229 450.364 292.057C451.597 294.375 452.799 307.749 452.273 313.302C452.146 314.644 450.256 315.132 446.416 314.813C441.026 314.368 440.722 314.059 440.268 308.531C439.949 304.655 440.64 301.776 442.341 299.898C443.762 298.33 444.474 295.991 443.948 294.622Z" fill="#DDD0C1" fill-opacity="0.25"/>
<path d="M241.243 303.141C240.773 302.381 241.217 301.483 242.23 301.146C244.952 300.24 250.991 301.646 250.991 303.189C250.991 304.957 242.339 304.915 241.243 303.141Z" fill="#DDD0C1" fill-opacity="0.25"/>
<path d="M435.667 324.656C432.36 321.968 428.78 314.567 426.839 306.412C425.454 300.593 430.547 302.408 433.871 308.917C435.528 312.165 437.634 315.072 438.549 315.375C439.495 315.691 440.002 318.437 439.724 321.744L439.234 327.557L435.667 324.656Z" fill="#DDD0C1" fill-opacity="0.25"/>
<path d="M281.761 338.562C280.638 336.924 279.719 334.713 279.719 333.651C279.719 332.473 281.628 331.74 284.633 331.767C288.673 331.805 289.081 332.084 286.926 333.34C284.743 334.611 284.614 335.362 286.155 337.826C288.515 341.602 290.897 341.586 293.52 337.775C296.815 332.991 299.908 336.076 298.207 342.451C297.054 346.78 296.207 347.542 292.814 347.303C290.602 347.146 288.791 347.657 288.791 348.437C288.791 351.643 285.75 349.55 284.814 345.699C284.258 343.412 282.885 340.201 281.761 338.562Z" fill="#DDD0C1" fill-opacity="0.25"/>
<path d="M443.796 364.208C440.132 353.852 438.989 345.313 440.998 343.307C441.068 343.237 441.132 343.17 441.194 343.106L441.195 343.104C441.448 342.841 441.646 342.636 441.879 342.58C442.715 342.381 444.008 344.099 449.93 351.966L449.987 352.043C450.378 352.562 450.789 353.108 451.221 353.681C459.498 364.672 459.777 365.351 459.342 373.343C458.902 381.402 456.351 384.804 455.382 378.624C455.049 376.499 453.758 375.541 451.224 375.541C449.204 375.541 447.547 375.372 447.544 375.163C447.539 374.955 445.853 370.026 443.796 364.208Z" fill="#DDD0C1" fill-opacity="0.25"/>
<path d="M540.082 422.002C547.816 417.383 555.795 411.837 557.81 409.681C561.927 405.279 563.045 405.068 569.796 407.421C574.116 408.925 574.557 409.667 574.557 415.412C574.557 421.671 574.435 421.814 564.351 427.358C558.739 430.445 550.476 435.043 545.99 437.576C540.176 440.859 536.269 442.052 532.382 441.727C527.315 441.302 526.898 440.886 526.474 435.837C526.024 430.464 526.176 430.308 540.082 422.002Z" fill="#DDD0C1" fill-opacity="0.25"/>
<path d="M502.52 442.76C501.915 441.183 503.366 438.475 506.614 435.127C509.479 432.172 513.146 429.938 515.13 429.938C518.341 429.938 518.613 430.581 518.613 438.195C518.613 444.776 517.691 447.907 514.077 453.602C511.583 457.533 509.542 461.976 509.542 463.476C509.542 464.975 508.612 466.202 507.476 466.202C505.889 466.202 505.669 464.797 506.524 460.125C507.62 454.137 506.453 451.53 503.494 453.358C500.302 455.33 498.77 452.358 501.126 448.765C502.409 446.808 503.037 444.107 502.52 442.76Z" fill="#DDD0C1" fill-opacity="0.25"/>
<path d="M507.381 494.049C504.05 490.72 504.136 475.711 507.508 471.988C510.964 468.171 511.809 468.449 515.44 474.599C517.897 478.76 518.613 482.512 518.613 491.22C518.613 498.352 518.009 502.466 516.959 502.466C516.051 502.466 514.95 501.107 514.516 499.444C514.081 497.782 512.832 496.422 511.741 496.422C510.65 496.422 508.689 495.354 507.381 494.049Z" fill="#DDD0C1" fill-opacity="0.25"/>
<path d="M510.771 559.457C516.59 559.985 520.079 559.673 520.763 558.564C522.173 556.286 525.501 556.413 527.956 558.836C529.054 559.921 531.145 561.26 532.599 561.812C536.304 563.212 535.897 565.625 531.86 566.201C529.017 566.608 529.802 567.522 536.774 571.914C541.339 574.79 549.417 581.073 554.726 585.876C563.314 593.647 570.962 597.626 577.359 597.651C578.484 597.656 585.211 600.38 592.31 603.704C601.605 608.058 607.195 609.749 612.292 609.749C621.864 609.749 633.351 613.357 643.773 619.638C650.686 623.802 654.006 624.851 660.292 624.854C671.062 624.86 675.861 627.237 675.861 632.566C675.861 634.878 676.453 637.134 677.178 637.581C677.902 638.029 678.826 641.849 679.232 646.07C679.638 650.292 680.834 654.556 681.891 655.546C683.433 656.992 683.64 655.809 682.944 649.527C682.317 643.858 682.654 641.232 684.172 639.973C685.323 639.018 685.893 637.267 685.438 636.081C684.237 632.956 689.434 633.345 691.974 636.569C696.406 642.198 696.88 643.95 694.971 647.645C693.929 649.664 693.37 654.278 693.723 657.947C694.318 664.106 694.13 664.53 691.161 663.754C685.549 662.288 687.612 665.97 700.83 681.02C707.886 689.054 713.661 696.481 713.661 697.522C713.661 698.565 712.59 700.598 711.282 702.041C709.118 704.432 709.132 705.106 711.435 709.559C713.339 713.237 714.283 713.936 715.245 712.38C716.267 710.728 717.347 711.067 720.593 714.048C723.08 716.334 724.901 717.115 725.28 716.058C726.128 713.699 731.804 715.357 731.804 717.963C731.804 719.111 730.484 720.053 728.87 720.053C727.255 720.053 725.478 720.792 724.919 721.695C724.187 722.878 723.443 722.878 722.259 721.695C720.189 719.626 718.196 719.578 718.196 721.595C718.196 722.445 720.068 723.956 722.354 724.951C724.641 725.949 729.698 728.909 733.592 731.532C737.485 734.153 743.268 736.766 746.444 737.339C749.619 737.91 755.958 740.291 760.532 742.629C765.106 744.966 771.012 747.348 773.658 747.917C776.302 748.489 779.19 749.827 780.075 750.892C780.959 751.956 784.408 754.057 787.739 755.557C793.94 758.352 795.925 762.361 791.109 762.361C789.631 762.361 786.909 761.302 785.061 760.008C779.905 756.4 781.064 759.315 787.334 765.732C792.252 770.767 792.732 771.875 791.114 774.464L791.022 774.612L790.903 774.801C790.047 776.165 789.528 776.993 789.508 777.833C789.479 779.13 790.644 780.455 793.608 783.826L794.083 784.366C798.826 789.765 801.732 798.798 803.908 814.904C804.389 818.455 805.448 821.771 806.261 822.274C808.602 823.719 810.507 819.426 809.55 814.869C809.022 812.364 809.324 810.714 810.309 810.714C812.9 810.714 817.988 816.496 817.988 819.443C817.988 820.921 819.052 823.649 820.354 825.506C821.656 827.364 822.507 830.744 822.244 833.019C821.862 836.338 820.89 837.256 817.326 837.663C814.439 837.99 811.065 840.24 807.693 844.084C803.647 848.696 801.417 850 797.57 850C794.104 850 792.426 849.196 791.93 847.3C791.413 845.325 788.451 844.05 780.89 842.548C770.749 840.534 740.876 826.884 740.876 824.266C740.876 823.565 738.137 823.028 734.789 823.075C730.587 823.133 726.934 821.934 722.991 819.203C719.849 817.027 716.488 815.247 715.522 815.247C714.556 815.247 711.494 813.254 708.716 810.816C705.94 808.381 701.664 805.898 699.215 805.301C696.766 804.703 692.719 802.447 690.225 800.288L685.689 796.359L688.713 793.222C690.376 791.497 693.949 788.478 696.651 786.516C699.354 784.553 701.565 782.056 701.565 780.965C701.565 779.874 702.925 778.982 704.589 778.982C706.252 778.982 707.613 778.302 707.613 777.471C707.613 775.509 705.156 775.551 701.363 777.578C699.076 778.802 697.497 778.647 694.894 776.943C691.764 774.892 691.223 774.951 688.962 777.591C687.594 779.186 685.835 780.493 685.055 780.493C682.887 780.493 678.885 776.013 678.885 773.587C678.885 772.399 678.204 771.427 677.373 771.427C676.541 771.427 675.861 772.233 675.861 773.219C675.861 775.956 669.606 782.004 666.775 782.004C665.395 782.004 661.096 778.659 657.222 774.57C653.349 770.481 647.846 766.367 644.996 765.427C641.365 764.229 639.345 762.37 638.242 759.211C636.54 754.328 636.755 754.342 644.342 759.587C649.15 762.911 650.157 763.029 650.157 760.268C650.157 759.117 651.834 757.077 653.884 755.735C655.933 754.394 658.367 751.884 659.291 750.158C660.782 747.375 660.658 747.189 658.193 748.508C656.664 749.324 654.126 751.415 652.552 753.155C648.658 757.453 646.823 757.139 648.923 752.533C650.75 748.526 649.924 746.282 647.234 747.944C646.347 748.491 645.621 750.599 645.621 752.629C645.621 757.579 643.177 757.325 641.901 752.24C641.319 749.926 640.432 748.878 639.847 749.818C638.342 752.234 631.647 752.858 630.894 750.652C630.539 749.613 631.157 748.489 632.265 748.152C633.374 747.816 635.642 747.032 637.305 746.408C638.968 745.785 641.52 745.423 642.975 745.602C644.451 745.785 645.621 744.941 645.621 743.694C645.621 742.464 646.472 741.156 647.511 740.784C648.551 740.414 648.859 739.533 648.199 738.827C647.536 738.121 645.675 738.368 644.06 739.376C642.447 740.383 640.096 741.207 638.838 741.207C637.579 741.207 636.549 741.887 636.549 742.718C636.549 744.995 632.453 744.531 631.538 742.15C631.069 740.927 632.247 739.386 634.4 738.406C637.12 737.167 638.061 735.542 638.061 732.083C638.061 729.365 637.432 727.818 636.549 728.363C635.717 728.877 635.037 730.616 635.037 732.23C635.037 733.844 634.09 735.163 632.932 735.163C630.498 735.163 628.564 728.962 629.908 725.461C631.065 722.448 628.597 722.419 622.865 725.38C618.825 727.469 618.405 727.458 618.405 725.272C618.405 722.951 615.009 718.542 613.22 718.542C611.602 718.542 612.351 722.821 614.07 723.394C616.083 724.064 614.415 730.63 612.233 730.63C609.753 730.63 604.782 720.968 605.728 717.99C606.348 716.039 605.992 715.366 604.578 715.817C603.451 716.178 601.877 718.638 601.082 721.286C600.133 724.444 598.672 726.097 596.833 726.097C594.269 726.097 594.116 725.164 595.042 715.142C596.26 701.964 597.778 700.41 609.433 700.41C619.999 700.41 627.477 699.01 627.477 697.035C627.477 696.123 625.871 696.025 623.319 696.781C616.805 698.711 598.755 698.439 598.752 696.411C598.751 695.458 601.155 692.569 604.094 689.99C607.033 687.41 609.13 685.299 608.754 685.299C608.376 685.299 606.992 684.887 605.677 684.382C604.173 683.805 603.285 684.279 603.285 685.659C603.285 686.866 601.936 689.072 600.29 690.562C595.279 695.094 592.706 691.336 592.678 679.449C592.663 672.927 592.181 670.183 591.295 671.581C590.141 673.403 589.319 673.324 585.864 671.062C582.92 669.134 581.337 668.853 580.141 670.049C577.288 672.9 574.557 671.86 574.557 667.923C574.557 662.799 571.854 663.109 571.255 668.3C570.821 672.075 570.147 672.496 563.908 672.903C557.354 673.331 556.923 673.104 554.458 667.941C551.109 660.921 551.204 659.612 555.065 659.612C557.705 659.612 558.092 658.967 557.311 655.862C556.613 653.078 557.156 651.619 559.415 650.209C563.704 647.533 563.202 646.013 558.027 646.013C554.921 646.013 553.306 645.108 552.633 642.991C551.121 638.231 548.829 639.467 549.836 644.499C550.922 649.927 548.372 653.568 543.484 653.568C538.914 653.568 535.245 649.766 535.245 645.029C535.245 641.605 534.808 641.336 530.709 642.235C526.78 643.098 526.173 642.802 526.173 640.017C526.173 637.007 525.797 637.107 520.21 641.593C515.635 645.268 513.347 646.158 510.382 645.413C505.152 644.102 505.521 641.527 511.809 635.436C517.588 629.839 518.588 626.397 514.455 626.321C512.053 626.278 512.077 626.07 514.723 624.071C518.453 621.25 517.402 620.295 510.118 619.893C506.889 619.715 504.449 618.89 504.694 618.059C504.938 617.228 505.542 614.848 506.037 612.771C507.652 605.979 509.254 605.215 521.908 605.215H533.903L537.144 612.393C539.19 616.923 540.586 618.636 540.927 617.039C541.227 615.648 540.023 611.672 538.253 608.204C534.582 601.015 535.065 598.366 540.495 595.894C542.597 594.936 544.317 593.242 544.317 592.129C544.317 589.675 543.527 589.613 539.52 591.757C537.287 592.951 535.976 592.951 534.781 591.757C532.711 589.688 520.125 589.567 520.125 591.616C520.125 592.447 522.336 593.138 525.039 593.15C530.717 593.177 534.539 595.135 533.185 597.325C531.524 600.009 504.174 603.005 502.724 600.661C500.866 597.656 498.858 599.182 500.539 602.323C502.266 605.546 501.666 607.644 499.414 606.254C498.723 605.826 494.859 600.652 490.826 594.753C484.778 585.908 483.821 583.635 485.363 581.778C486.933 579.889 486.636 579.528 483.52 579.528C480.585 579.528 479.463 578.406 478.16 574.158C476.657 569.265 476.804 568.676 479.796 567.532C481.603 566.842 487.3 564.56 492.456 562.461C500.126 559.34 503.456 558.794 510.771 559.457Z" fill="#DDD0C1" fill-opacity="0.25"/>
<path d="M567.912 589.984C564.15 590.158 563.804 589.862 565.452 587.88C566.506 586.61 568.272 585.572 569.376 585.572C574.173 585.572 586.653 588.972 586.653 590.278C586.653 592.914 581.719 593.641 576.981 591.703C574.4 590.648 570.319 589.874 567.912 589.984Z" fill="#DDD0C1" fill-opacity="0.25"/>
<path d="M599.431 597.688C601.651 596.844 603.046 595.474 602.531 594.641C601.498 592.97 612.705 592.469 614.35 594.111C614.891 594.652 614.153 596.057 612.711 597.233C610.311 599.188 610.41 599.313 613.869 598.709C615.948 598.346 618.84 597.549 620.295 596.938C622.419 596.045 622.941 596.597 622.941 599.737C622.941 604.638 618.579 605.963 607.144 604.536C597.127 603.284 593.404 599.978 599.431 597.688Z" fill="#DDD0C1" fill-opacity="0.25"/>
<path d="M686.346 625.122C686.209 623.73 686.175 622.038 686.271 621.359C686.366 620.681 688.316 620.341 690.603 620.604C694.175 621.015 694.824 621.846 695.216 626.516L695.672 631.953L688.025 631.684C680.422 631.417 677.401 629.085 683.436 628.144C685.321 627.849 686.495 626.631 686.346 625.122Z" fill="#DDD0C1" fill-opacity="0.25"/>
<path d="M706.763 644.206C706.191 642.408 706.878 640.105 708.527 638.282C710.712 635.869 712.824 635.387 719.625 635.747L728.024 636.191L727.798 641.137C727.483 648.007 723.511 653.568 718.918 653.568C714.788 653.568 713.877 651.366 717.44 649.999C721.611 648.4 720.046 644.976 715.454 645.649C711.417 646.241 711.22 646.632 711.612 653.27C711.861 657.51 711.303 660.724 710.197 661.427C707.102 663.393 705.854 662.767 706.817 659.734C707.476 657.66 706.86 656.555 704.652 655.854C700.6 654.57 700.586 649.008 704.631 647.95C706.861 647.368 707.443 646.347 706.763 644.206Z" fill="#DDD0C1" fill-opacity="0.25"/>
<path d="M549.52 656.59C548.224 656.59 547.583 655.91 548.097 655.079C548.611 654.248 549.671 653.568 550.454 653.568C551.238 653.568 551.877 654.248 551.877 655.079C551.877 655.91 550.816 656.59 549.52 656.59Z" fill="#DDD0C1" fill-opacity="0.25"/>
<path d="M576.248 680.766C570.467 680.766 568.766 678.155 573.326 676.28C575.251 675.488 579.523 674.985 582.819 675.159C589.526 675.516 589.744 675.976 591.82 694.319C592.79 702.895 592.665 703.432 589.677 703.432C584.529 703.432 578.248 699.42 572.97 692.759C567.706 686.118 568.37 683.862 575.602 683.811C577.424 683.799 579.335 683.108 579.849 682.277C580.393 681.398 578.886 680.766 576.248 680.766Z" fill="#DDD0C1" fill-opacity="0.25"/>
<path d="M735.628 701.272C730.59 700.328 730.292 699.94 730.292 694.297C730.292 687.774 731.611 686.756 734.36 691.156C735.335 692.714 738.521 694.438 741.442 694.985C745.421 695.731 749.047 698.483 755.91 705.969C763.924 714.708 767.456 721.571 763.934 721.561C761.325 721.552 744.51 708.978 742.81 705.766C741.643 703.557 739.005 701.905 735.628 701.272Z" fill="#DDD0C1" fill-opacity="0.25"/>
<path d="M762.448 727.809C760.91 729.345 748.436 723.755 748.436 721.529C748.436 720.716 750.045 720.053 752.012 720.053C756.371 720.053 764.308 725.95 762.448 727.809Z" fill="#DDD0C1" fill-opacity="0.25"/>
<path d="M624.036 741.207C618.662 741.207 616.97 738.963 616.914 731.763C616.881 727.478 625.404 728.159 626.35 732.519C626.756 734.388 627.589 737.109 628.2 738.563C629.137 740.788 628.476 741.207 624.036 741.207Z" fill="#DDD0C1" fill-opacity="0.25"/>
<path d="M816.174 739.998C815.288 739.113 814.991 737.272 815.514 735.908C816.726 732.756 821.57 733.596 822.24 737.074C822.841 740.196 818.478 742.301 816.174 739.998Z" fill="#DDD0C1" fill-opacity="0.25"/>
<path d="M802.094 774.212C800.624 775.673 795.308 768.555 795.308 765.126C795.308 763.508 795.993 762.606 796.831 763.123C799.173 764.569 803.217 773.094 802.094 774.212Z" fill="#DDD0C1" fill-opacity="0.25"/>
<path d="M808.948 783.991C805.64 781.652 802.918 778.889 802.9 777.849C802.848 774.838 804.515 775.607 815.342 783.595C821.975 788.488 825.548 792.173 825.548 794.12C825.548 795.767 824.679 797.115 823.617 797.115C820.643 797.115 814.964 792.66 814.964 790.327C814.964 789.182 812.258 786.33 808.948 783.991Z" fill="#DDD0C1" fill-opacity="0.25"/>
<path d="M803.718 793.329C802.419 790.221 801.356 787.083 801.356 786.353C801.356 784.182 803.721 784.828 807.956 788.159C810.147 789.88 811.94 792.622 811.94 794.25C811.94 795.877 812.961 797.601 814.208 798.078C815.455 798.557 816.476 799.896 816.476 801.054C816.476 802.211 815.455 803.159 814.208 803.159C812.961 803.159 811.94 804.178 811.94 805.425C811.94 806.672 811.003 807.692 809.857 807.692C806.884 807.692 804.173 803.946 805.204 801.259C805.686 800.005 805.017 796.436 803.718 793.329Z" fill="#DDD0C1" fill-opacity="0.25"/>
<path d="M825.556 803.91C823.549 805.149 819.199 801.844 820.362 799.966C821.561 798.027 823.409 798.316 825.436 800.758C826.702 802.281 826.735 803.181 825.556 803.91Z" fill="#DDD0C1" fill-opacity="0.25"/>
<path d="M835.501 803.159C832.961 803.159 831.596 802.329 831.596 800.786C831.596 799.212 832.698 798.577 834.88 798.897C839.72 799.611 840.238 803.159 835.501 803.159Z" fill="#DDD0C1" fill-opacity="0.25"/>
<path d="M851.61 800.141C851.178 800.407 850.337 799.319 850.337 798.494C850.337 797.878 850.506 797.71 851.124 797.71C851.557 797.71 852.001 797.855 852.111 798.033C852.22 798.21 852.139 798.355 851.931 798.355C851.7 798.355 851.612 798.673 851.707 799.17C851.793 799.618 851.749 800.054 851.61 800.141Z" fill="#DDD0C1" fill-opacity="0.25"/>
<path d="M866.218 804.534C865.533 804.2 865.291 802.375 865.844 801.708C866.491 800.928 867.18 801.328 868.027 802.974C868.466 803.827 869.962 805.75 871.351 807.246C873.478 809.538 873.877 810.141 873.877 811.068C873.877 812.003 873.782 812.144 873.243 812.003C872.316 811.76 870.836 810.113 869.268 807.579C868.51 806.352 867.64 805.227 867.336 805.078C867.113 804.969 866.784 804.809 866.502 804.671L866.218 804.534Z" fill="#DDD0C1" fill-opacity="0.25"/>
<path d="M839.267 806.39L840.84 804.793C841.791 803.826 842.696 803.195 843.131 803.195C843.983 803.195 844.086 803.33 844.367 804.831C844.56 805.863 844.431 806.164 843.089 807.813C841.384 809.907 840.872 810.115 841.147 808.599C841.316 807.667 841.222 807.486 840.302 806.97L839.267 806.39Z" fill="#DDD0C1" fill-opacity="0.25"/>
<path d="M845.762 809.187C846.155 808.612 847.242 807.319 848.178 806.314L849.878 804.485H851.84C853.681 804.485 853.96 804.593 856.343 806.212C859.094 808.083 861.884 809.648 862.468 809.648C862.669 809.648 863.019 809.87 863.245 810.143C863.843 810.863 863.197 811.885 861.44 812.997C859.846 814.005 859.339 814.736 859.06 816.423C858.922 817.257 858.693 817.578 858.184 817.651C857.647 817.728 857.413 817.506 857.13 816.65C856.931 816.045 856.392 815.202 855.932 814.777C854.291 813.257 853.53 811.654 853.333 809.298L853.146 807.067H852.083C851.498 807.067 850.928 807.216 850.815 807.398C850.457 807.978 851.651 812.032 852.429 812.874C854.433 815.045 855.103 817.384 853.905 818.025C853.134 818.438 849.701 818.456 849.06 818.051C848.801 817.887 848.438 817.132 848.254 816.372C847.857 814.737 846.066 813.238 845.284 813.887C845.04 814.09 844.917 814.526 845.009 814.855C845.102 815.185 845.26 815.745 845.36 816.1C845.58 816.875 844.62 817.025 844.327 816.262C844.225 815.996 843.794 815.778 843.37 815.778C842.714 815.778 842.598 815.621 842.6 814.729C842.603 812.872 843.213 811.315 844.156 810.757C844.646 810.468 845.368 809.762 845.762 809.187Z" fill="#DDD0C1" fill-opacity="0.25"/>
<path d="M872.272 806.106C871.913 805.747 871.62 805.234 871.62 804.965C871.62 804.592 871.865 804.52 872.654 804.659C874.513 804.986 874.878 805.713 873.544 806.427C873.06 806.686 872.782 806.616 872.272 806.106Z" fill="#DDD0C1" fill-opacity="0.25"/>
<path d="M827.039 809.088C826.383 808.497 826.294 807.51 826.878 807.293C827.553 807.043 829.171 807.455 829.985 808.084C830.408 808.412 830.934 808.68 831.154 808.68C831.375 808.68 831.736 808.898 831.957 809.164C832.178 809.43 832.6 809.648 832.895 809.648C833.711 809.648 835.902 810.854 835.518 811.091C835.332 811.205 835.036 811.209 834.859 811.099C834.681 810.99 834.398 810.986 834.228 811.091C833.676 811.432 834.266 812.243 835.543 812.894C836.901 813.587 837.268 814.352 836.068 813.988C835.669 813.867 834.367 813.13 833.174 812.351C831.982 811.573 830.24 810.634 829.304 810.266C828.369 809.898 827.349 809.368 827.039 809.088Z" fill="#DDD0C1" fill-opacity="0.25"/>
<path d="M867.397 815.579C867.027 815.133 867.072 814.972 867.716 814.45C868.129 814.115 868.551 813.842 868.655 813.842C868.949 813.842 870.652 815.544 870.652 815.838C870.652 816.343 867.846 816.12 867.397 815.579Z" fill="#DDD0C1" fill-opacity="0.25"/>
<path d="M830.126 818.424C828.61 818.972 828.275 818.51 828.948 816.797C829.356 815.756 829.608 815.482 829.995 815.655C830.276 815.781 830.796 815.853 831.15 815.816C831.505 815.779 832.805 815.719 834.038 815.683L836.281 815.616L836.5 816.683C836.732 817.808 837.564 818.654 838.457 818.671C838.75 818.677 839.615 819.427 840.378 820.339C841.141 821.251 842.243 822.197 842.827 822.441C843.877 822.88 844.208 823.607 843.544 824.018C843.321 824.156 843.401 824.452 843.776 824.866C844.218 825.354 844.597 825.456 845.409 825.304C846.417 825.115 846.468 825.152 846.468 826.088C846.468 827.051 846.437 827.07 844.855 827.07H843.243V828.464C843.243 829.231 843.474 830.538 843.757 831.368L844.271 832.877H845.853C847.349 832.877 847.435 832.924 847.435 833.731V834.585L845.097 834.38C840.979 834.019 839.513 833.264 839.237 831.362C839.175 830.933 838.778 830.736 837.728 830.613C836.198 830.433 834.491 829.525 833.302 828.259C832.774 827.696 832.51 826.932 832.377 825.577C832.275 824.535 832.086 823.537 831.958 823.36C831.829 823.182 831.635 822.361 831.528 821.535C831.371 820.331 831.458 819.873 831.967 819.225C832.063 819.103 832.155 818.98 832.237 818.864C832.29 818.789 832.339 818.717 832.382 818.65C832.516 818.444 832.602 818.285 832.602 818.227C832.602 817.907 831.259 818.014 830.126 818.424Z" fill="#DDD0C1" fill-opacity="0.25"/>
<path d="M864.687 821.146C863.994 820.88 864.09 819.424 864.885 818.137C865.834 816.602 867.034 816.731 867.62 818.432C867.848 819.093 868.333 819.955 868.698 820.348C869.489 821.197 869.534 821.686 868.873 822.235C868.604 822.458 868.423 823.011 868.47 823.464C868.544 824.166 868.394 824.321 867.456 824.519C866.851 824.647 866.176 824.682 865.956 824.598C865.501 824.423 865.181 823.435 865.175 822.184C865.172 821.715 864.953 821.248 864.687 821.146Z" fill="#DDD0C1" fill-opacity="0.25"/>
<path d="M844.07 819.344C843.793 819.114 843.565 818.798 843.565 818.642C843.565 818.051 846.027 818.391 847.387 819.169C848.159 819.611 849.175 819.974 849.644 819.977C851.522 819.988 851.573 820.5 849.853 822.045C848.967 822.841 848.058 823.499 847.835 823.506C847.272 823.526 845.693 821.948 845.083 820.755C844.804 820.21 844.348 819.575 844.07 819.344Z" fill="#DDD0C1" fill-opacity="0.25"/>
<path d="M871.593 825.917C871.06 825.433 870.975 824.899 870.975 822.019C870.975 820.08 871.106 818.681 871.287 818.681C871.459 818.681 872.111 819.481 872.735 820.457C873.565 821.755 874.211 822.37 875.134 822.739C875.961 823.07 876.53 823.564 876.781 824.17C877.328 825.491 876.942 825.912 875.803 825.239C874.956 824.738 874.818 824.734 874.293 825.192C873.01 826.313 872.254 826.515 871.593 825.917Z" fill="#DDD0C1" fill-opacity="0.25"/>
<path d="M858.285 823.079C857.352 821.009 857.223 819.987 857.818 819.391C858.634 818.575 859.654 818.965 860.806 820.537C862.294 822.566 862.263 823.225 860.626 824.309C859.901 824.789 859.269 825.135 859.223 825.078C859.177 825.02 858.755 824.12 858.285 823.079Z" fill="#DDD0C1" fill-opacity="0.25"/>
<path d="M852.272 822.456C852.272 822.036 852.371 821.594 852.492 821.472C852.786 821.179 853.15 821.596 853.293 822.392C853.357 822.747 853.625 823.037 853.889 823.037C854.635 823.037 854.878 824.76 854.471 827.16C854.118 829.239 854.137 829.398 854.845 830.356C855.434 831.154 855.516 831.482 855.235 831.932C854.963 832.367 854.993 832.594 855.364 832.901C855.691 833.173 855.783 833.599 855.646 834.219C855.504 834.869 855.57 835.135 855.874 835.131C856.781 835.12 857.242 834.478 857.414 832.984C857.55 831.801 857.737 831.405 858.203 831.316C858.696 831.222 858.777 831.339 858.623 831.926C858.519 832.326 858.635 833.044 858.882 833.521C859.32 834.369 859.218 838.05 858.757 838.032C858.649 838.028 857.99 837.892 857.294 837.73C856.353 837.512 855.798 837.556 855.133 837.9C854.641 838.154 854.012 838.362 853.735 838.362C853.281 838.362 853.279 838.246 853.716 837.199C854.329 835.732 854.152 835.458 852.594 835.458C851.906 835.458 851.249 835.307 851.135 835.123C851.021 834.938 850.36 834.428 849.665 833.99C848.576 833.301 848.402 833.032 848.402 832.023C848.402 830.313 849.049 828.316 849.908 827.375C850.387 826.85 850.661 826.148 850.664 825.439C850.67 824.173 850.903 823.724 851.708 823.427C852.027 823.309 852.272 822.888 852.272 822.456Z" fill="#DDD0C1" fill-opacity="0.25"/>
<path d="M857.208 827.97C856.933 827.666 856.794 827.193 856.898 826.921C857.035 826.564 857.551 826.425 858.733 826.425C860.294 826.425 860.365 826.461 860.138 827.151C860.007 827.55 859.813 828.383 859.708 829.002C859.461 830.464 858.538 830.704 858.055 829.433C857.864 828.932 857.484 828.274 857.208 827.97Z" fill="#DDD0C1" fill-opacity="0.25"/>
<path d="M884.354 943.926C884.477 943.273 884.645 942.629 884.728 942.495C884.811 942.361 885.25 942.251 885.703 942.251C886.462 942.251 886.509 942.332 886.304 943.299C885.9 945.208 886.021 946.126 886.786 946.94C887.514 947.715 887.522 947.798 887.138 950.308C886.608 953.774 886.788 954.073 889.506 954.246C892.157 954.415 892.741 954.89 891.247 955.662C890.65 955.97 889.241 957.216 888.116 958.432C886.679 959.983 885.839 960.641 885.294 960.641C884.224 960.641 884.298 959.968 885.626 957.592C886.851 955.399 886.773 954.603 885.365 954.956C884.144 955.262 883.551 956.685 883.551 959.308C883.551 962.686 883.143 963.233 881.571 961.96C880.86 961.384 880.808 961.113 880.778 957.846C880.757 955.563 880.891 954.058 881.165 953.509C881.396 953.047 881.733 951.484 881.914 950.035C882.269 947.207 882.489 946.6 883.489 945.694C883.843 945.374 884.232 944.578 884.354 943.926Z" fill="#DDD0C1" fill-opacity="0.25"/>
<path d="M874.56 974.837C873.783 974.837 870.33 970.44 870.33 969.45C870.33 969.219 870.521 969.029 870.755 969.029C871.387 969.029 873.822 971.215 874.369 972.272C874.892 973.284 875.008 974.837 874.56 974.837Z" fill="#DDD0C1" fill-opacity="0.25"/>
<path d="M865.973 975.544C866.092 975.07 866.359 974.574 866.566 974.442C867.217 974.028 868.195 974.17 869.29 974.838C869.87 975.192 870.632 975.482 870.983 975.482C871.826 975.482 871.792 976.264 870.914 977.083C870.014 977.922 868.718 977.918 867.063 977.074C865.9 976.48 865.78 976.312 865.973 975.544Z" fill="#DDD0C1" fill-opacity="0.25"/>
<path d="M864.526 982.725C864.526 982.64 864.975 981.774 865.523 980.801C866.073 979.827 866.692 979.031 866.9 979.031C867.108 979.031 867.819 979.399 868.482 979.849C870.002 980.883 870.021 981.701 868.556 983.043C867.936 983.612 867.428 984.322 867.428 984.62C867.428 985.502 866.597 985.24 865.526 984.021C864.976 983.393 864.526 982.811 864.526 982.725Z" fill="#DDD0C1" fill-opacity="0.25"/>
<path fill-rule="evenodd" clip-rule="evenodd" d="M638.761 709.192C638.761 709.375 638.697 709.384 637.423 709.384C636.15 709.384 636.086 709.393 636.086 709.576C636.086 709.747 636.022 709.768 635.513 709.768C635.003 709.768 634.939 709.79 634.939 709.96C634.939 710.131 634.876 710.153 634.366 710.153C633.857 710.153 633.793 710.174 633.793 710.345C633.793 710.515 633.729 710.537 633.22 710.537C632.71 710.537 632.647 710.558 632.647 710.729C632.647 710.889 632.583 710.921 632.264 710.921C631.946 710.921 631.882 710.953 631.882 711.113C631.882 711.273 631.818 711.305 631.5 711.305C631.182 711.305 631.118 711.337 631.118 711.497C631.118 711.628 631.054 711.689 630.918 711.689C630.802 711.689 630.698 711.766 630.67 711.872C630.64 711.989 630.504 712.078 630.297 712.117C630.118 712.151 629.972 712.236 629.972 712.308C629.972 712.384 629.788 712.475 629.518 712.532C629.268 712.584 629.161 712.632 629.279 712.638C629.631 712.657 629.523 712.82 629.112 712.89C628.877 712.93 628.73 713.007 628.73 713.09C628.73 713.165 628.644 713.226 628.538 713.226C628.414 713.226 628.347 713.29 628.347 713.41C628.347 713.549 628.255 713.609 627.965 713.658C627.675 713.707 627.583 713.767 627.583 713.907C627.583 714.026 627.517 714.09 627.392 714.09C627.265 714.09 627.201 714.154 627.201 714.282C627.201 714.411 627.137 714.475 627.01 714.475C626.879 714.475 626.819 714.539 626.819 714.678C626.819 714.834 626.774 714.87 626.628 714.831C626.476 714.791 626.437 714.828 626.437 715.012C626.437 715.179 626.384 715.243 626.246 715.243C626.118 715.243 626.055 715.307 626.055 715.435C626.055 715.574 625.991 715.627 625.825 715.627C625.642 715.627 625.605 715.666 625.645 715.819C625.683 715.967 625.648 716.011 625.492 716.011C625.354 716.011 625.29 716.072 625.29 716.203C625.29 716.329 625.227 716.395 625.108 716.395C624.969 716.395 624.909 716.488 624.86 716.78C624.811 717.071 624.752 717.164 624.613 717.164C624.494 717.164 624.43 717.231 624.43 717.356C624.43 717.463 624.367 717.548 624.287 717.548C624.208 717.548 624.144 717.633 624.144 717.74C624.144 717.868 624.08 717.932 623.953 717.932C623.806 717.932 623.762 717.996 623.762 718.208C623.762 718.685 623.647 719.085 623.511 719.085C623.439 719.085 623.38 719.173 623.38 719.28C623.38 719.393 623.289 719.512 623.165 719.562C623 719.629 622.989 719.65 623.117 719.655C623.32 719.662 623.343 719.853 623.141 719.853C623.059 719.853 622.997 719.939 622.997 720.054C622.997 720.175 622.921 720.275 622.806 720.306C622.67 720.341 622.596 720.466 622.555 720.729C622.51 721.008 622.45 721.102 622.316 721.102C622.171 721.102 622.138 721.174 622.138 721.486C622.138 721.806 622.106 721.87 621.946 721.87C621.766 721.87 621.755 721.934 621.755 723.023C621.755 724.111 621.745 724.175 621.564 724.175C621.389 724.175 621.373 724.239 621.373 724.944C621.373 725.546 621.344 725.712 621.237 725.712C621.161 725.712 621.081 725.615 621.059 725.496C621.036 725.377 621.011 726.177 621.004 727.273C620.992 729.206 620.997 729.266 621.182 729.266C621.368 729.266 621.373 729.33 621.373 731.571C621.373 733.812 621.379 733.876 621.564 733.876C621.74 733.876 621.755 733.94 621.755 734.683C621.755 735.443 621.767 735.488 621.946 735.44C622.123 735.394 622.138 735.437 622.138 736.025C622.138 736.597 622.157 736.661 622.329 736.661C622.489 736.661 622.52 736.725 622.52 737.054C622.52 737.367 622.559 737.458 622.711 737.498C622.847 737.533 622.921 737.658 622.963 737.921C622.998 738.144 623.074 738.294 623.153 738.294C623.24 738.294 623.284 738.41 623.284 738.639C623.284 738.904 623.329 738.996 623.476 739.034C623.611 739.07 623.685 739.195 623.727 739.458C623.761 739.673 623.839 739.831 623.913 739.831C623.983 739.831 624.068 739.982 624.102 740.167C624.138 740.357 624.222 740.503 624.296 740.503C624.368 740.503 624.454 740.611 624.487 740.743C624.52 740.875 624.603 740.983 624.671 740.983C624.742 740.983 624.823 741.147 624.859 741.361C624.902 741.613 624.964 741.724 625.046 741.692C625.123 741.662 625.19 741.753 625.227 741.938C625.261 742.107 625.346 742.232 625.427 742.232C625.512 742.232 625.592 742.361 625.629 742.557C625.677 742.816 625.726 742.872 625.872 742.833C626.032 742.791 626.055 742.84 626.055 743.229C626.055 743.608 626.082 743.672 626.246 743.672C626.373 743.672 626.437 743.736 626.437 743.864C626.437 743.992 626.5 744.056 626.628 744.056C626.755 744.056 626.819 744.121 626.819 744.249C626.819 744.377 626.883 744.441 627.01 744.441C627.169 744.441 627.201 744.505 627.201 744.825C627.201 745.145 627.233 745.209 627.392 745.209C627.519 745.209 627.583 745.273 627.583 745.401C627.583 745.529 627.647 745.593 627.774 745.593C627.933 745.593 627.965 745.657 627.965 745.977C627.965 746.298 627.997 746.362 628.156 746.362C628.296 746.362 628.347 746.426 628.347 746.602C628.347 746.778 628.398 746.842 628.538 746.842C628.693 746.842 628.73 746.906 628.73 747.178C628.73 747.45 628.766 747.514 628.921 747.514C629.048 747.514 629.112 747.578 629.112 747.706C629.112 747.834 629.175 747.898 629.303 747.898C629.433 747.898 629.494 747.962 629.494 748.099C629.494 748.219 629.57 748.321 629.683 748.35C629.804 748.382 629.892 748.513 629.93 748.716C629.967 748.915 630.057 749.051 630.172 749.081C630.272 749.107 630.354 749.198 630.354 749.282C630.354 749.371 630.434 749.435 630.545 749.435C630.668 749.435 630.736 749.499 630.736 749.616C630.736 749.716 630.821 749.819 630.927 749.847C631.041 749.877 631.118 749.978 631.118 750.098C631.118 750.213 631.179 750.299 631.261 750.299C631.343 750.299 631.405 750.386 631.405 750.501C631.405 750.62 631.481 750.722 631.593 750.751C631.715 750.783 631.803 750.914 631.841 751.118C631.878 751.317 631.968 751.452 632.082 751.482C632.182 751.508 632.264 751.599 632.264 751.683C632.264 751.767 632.329 751.836 632.408 751.836C632.487 751.836 632.551 751.922 632.551 752.028C632.551 752.169 632.615 752.22 632.79 752.22C632.965 752.22 633.029 752.272 633.029 752.412C633.029 752.54 633.092 752.605 633.22 752.605C633.347 752.605 633.411 752.669 633.411 752.797C633.411 752.925 633.475 752.989 633.602 752.989C633.729 752.989 633.793 753.053 633.793 753.181C633.793 753.309 633.857 753.373 633.984 753.373C634.143 753.373 634.175 753.437 634.175 753.757C634.175 754.077 634.207 754.141 634.366 754.141C634.493 754.141 634.557 754.205 634.557 754.333C634.557 754.461 634.621 754.525 634.748 754.525C634.876 754.525 634.939 754.589 634.939 754.718C634.939 754.846 635.003 754.91 635.13 754.91C635.258 754.91 635.322 754.974 635.322 755.102C635.322 755.23 635.385 755.294 635.513 755.294C635.64 755.294 635.704 755.358 635.704 755.486C635.704 755.614 635.767 755.678 635.895 755.678C636.022 755.678 636.086 755.742 636.086 755.87C636.086 756.001 636.15 756.062 636.286 756.062C636.402 756.062 636.506 756.139 636.533 756.245C636.563 756.361 636.698 756.45 636.899 756.488C637.18 756.541 637.224 756.592 637.28 756.929C637.32 757.163 637.397 757.311 637.479 757.311C637.554 757.311 637.614 757.397 637.614 757.503C637.614 757.631 637.678 757.695 637.805 757.695C637.933 757.695 637.997 757.759 637.997 757.887C637.997 758.015 638.06 758.079 638.188 758.079C638.315 758.079 638.379 758.143 638.379 758.271C638.379 758.396 638.442 758.463 638.561 758.463C638.7 758.463 638.76 758.556 638.809 758.847C638.858 759.139 638.917 759.232 639.056 759.232C639.175 759.232 639.238 759.299 639.238 759.424C639.238 759.552 639.302 759.616 639.43 759.616C639.557 759.616 639.621 759.68 639.621 759.808C639.621 759.972 639.684 760 640.051 760C640.417 760 640.48 759.972 640.48 759.808C640.48 759.701 640.544 759.616 640.624 759.616C640.703 759.616 640.767 759.53 640.767 759.424C640.767 759.264 640.831 759.232 641.149 759.232C641.468 759.232 641.531 759.2 641.531 759.04C641.531 758.912 641.595 758.847 641.722 758.847C641.85 758.847 641.913 758.783 641.913 758.655C641.913 758.495 641.977 758.463 642.296 758.463C642.614 758.463 642.678 758.431 642.678 758.271C642.678 758.143 642.741 758.079 642.869 758.079C642.996 758.079 643.06 758.015 643.06 757.887C643.06 757.746 643.124 757.695 643.299 757.695C643.474 757.695 643.538 757.644 643.538 757.503C643.538 757.396 643.601 757.311 643.681 757.311C643.76 757.311 643.824 757.245 643.824 757.164C643.824 757.084 643.932 756.977 644.063 756.927C644.194 756.876 644.302 756.774 644.302 756.7C644.302 756.626 644.388 756.542 644.493 756.515C644.598 756.487 644.684 756.395 644.684 756.311C644.684 756.227 644.75 756.158 644.83 756.158C644.91 756.158 645.016 756.05 645.066 755.918C645.116 755.786 645.201 755.678 645.255 755.678C645.309 755.678 645.353 755.609 645.353 755.525C645.353 755.441 645.439 755.349 645.544 755.322C645.649 755.294 645.735 755.208 645.735 755.13C645.735 755.051 645.821 754.965 645.926 754.937C646.031 754.91 646.117 754.823 646.117 754.745C646.117 754.667 646.199 754.582 646.299 754.556C646.4 754.529 646.503 754.425 646.529 754.324C646.557 754.218 646.66 754.141 646.777 754.141C646.946 754.141 646.977 754.083 646.977 753.757C646.977 753.437 647.009 753.373 647.168 753.373C647.295 753.373 647.359 753.309 647.359 753.181C647.359 753.053 647.423 752.989 647.55 752.989C647.677 752.989 647.741 752.925 647.741 752.797C647.741 752.669 647.805 752.605 647.932 752.605C648.091 752.605 648.123 752.54 648.123 752.22C648.123 751.9 648.155 751.836 648.314 751.836C648.442 751.836 648.505 751.772 648.505 751.644C648.505 751.516 648.569 751.452 648.697 751.452C648.824 751.452 648.888 751.388 648.888 751.26C648.888 751.132 648.951 751.068 649.079 751.068C649.206 751.068 649.27 751.004 649.27 750.876C649.27 750.748 649.333 750.684 649.461 750.684C649.588 750.684 649.652 750.62 649.652 750.492C649.652 750.363 649.716 750.299 649.843 750.299C650.002 750.299 650.034 750.235 650.034 749.915C650.034 749.589 650.064 749.531 650.234 749.531C650.35 749.531 650.454 749.455 650.482 749.348C650.508 749.247 650.611 749.143 650.712 749.117C650.812 749.09 650.894 749.005 650.894 748.927C650.894 748.849 650.98 748.763 651.085 748.735C651.199 748.705 651.276 748.604 651.276 748.484C651.276 748.369 651.338 748.282 651.419 748.282C651.498 748.282 651.563 748.214 651.563 748.129C651.563 748.045 651.649 747.954 651.754 747.926C651.859 747.898 651.945 747.812 651.945 747.734C651.945 747.656 652.031 747.57 652.136 747.542C652.241 747.514 652.327 747.428 652.327 747.35C652.327 747.272 652.413 747.185 652.519 747.158C652.654 747.122 652.728 746.997 652.77 746.734C652.814 746.455 652.874 746.362 653.008 746.362C653.123 746.362 653.187 746.293 653.187 746.169C653.187 746.063 653.25 745.977 653.33 745.977C653.41 745.977 653.473 745.892 653.473 745.785C653.473 745.68 653.516 745.593 653.569 745.593C653.621 745.593 653.664 745.528 653.664 745.449C653.664 745.37 653.729 745.305 653.808 745.305C653.897 745.305 653.951 745.214 653.951 745.065C653.951 744.889 654.002 744.825 654.142 744.825C654.301 744.825 654.333 744.761 654.333 744.441C654.333 744.121 654.365 744.056 654.524 744.056C654.683 744.056 654.715 743.992 654.715 743.672C654.715 743.352 654.747 743.288 654.906 743.288C655.066 743.288 655.097 743.224 655.097 742.904C655.097 742.584 655.129 742.52 655.288 742.52C655.451 742.52 655.48 742.456 655.48 742.088C655.48 741.719 655.508 741.655 655.671 741.655C655.826 741.655 655.862 741.591 655.862 741.31C655.862 741.046 655.906 740.953 656.053 740.915C656.202 740.875 656.244 740.784 656.244 740.492C656.244 740.183 656.277 740.119 656.435 740.119C656.594 740.119 656.626 740.055 656.626 739.734C656.626 739.414 656.658 739.35 656.817 739.35C656.985 739.35 657.008 739.286 657.008 738.822C657.008 738.368 657.034 738.294 657.188 738.294C657.329 738.294 657.383 738.198 657.433 737.862C657.472 737.6 657.547 737.429 657.624 737.429C657.711 737.429 657.771 737.208 657.817 736.709C657.865 736.2 657.922 735.989 658.014 735.989C658.104 735.989 658.163 735.785 658.209 735.316C658.251 734.885 658.317 734.644 658.392 734.644C658.507 734.644 658.632 733.858 658.632 733.141C658.632 732.919 658.677 732.819 658.776 732.819C658.89 732.819 658.92 732.669 658.926 732.075C658.93 731.666 658.947 731.179 658.962 730.994C659.01 730.438 659.013 726.588 658.967 725.712C658.943 725.263 658.923 724.647 658.921 724.343C658.919 723.917 658.886 723.791 658.776 723.791C658.673 723.791 658.628 723.674 658.616 723.383C658.607 723.158 658.59 722.91 658.578 722.831C658.567 722.751 658.552 722.589 658.547 722.47C658.541 722.35 658.475 722.254 658.398 722.254C658.3 722.254 658.241 722.087 658.195 721.678C658.152 721.3 658.087 721.102 658.005 721.102C657.93 721.102 657.854 720.929 657.815 720.669C657.774 720.396 657.702 720.237 657.618 720.237C657.533 720.237 657.485 720.127 657.484 719.925C657.482 719.426 657.385 719.181 657.188 719.181C657.039 719.181 657.008 719.108 657.008 718.749C657.008 718.38 656.98 718.316 656.817 718.316C656.69 718.316 656.626 718.252 656.626 718.124C656.626 717.996 656.562 717.932 656.435 717.932C656.276 717.932 656.244 717.868 656.244 717.548C656.244 717.228 656.212 717.164 656.053 717.164C655.925 717.164 655.862 717.1 655.862 716.972C655.862 716.844 655.798 716.78 655.671 716.78C655.511 716.78 655.48 716.716 655.48 716.395C655.48 716.075 655.448 716.011 655.288 716.011C655.161 716.011 655.097 715.947 655.097 715.819C655.097 715.691 655.034 715.627 654.906 715.627C654.779 715.627 654.715 715.563 654.715 715.435C654.715 715.307 654.652 715.243 654.524 715.243C654.384 715.243 654.333 715.179 654.333 715.003C654.333 714.827 654.282 714.763 654.142 714.763C654.037 714.763 653.951 714.703 653.951 714.629C653.951 714.556 653.84 714.467 653.703 714.433C653.538 714.391 653.474 714.324 653.509 714.23C653.546 714.136 653.499 714.09 653.366 714.09C653.252 714.09 653.149 714.013 653.121 713.907C653.095 713.806 652.992 713.702 652.891 713.676C652.791 713.65 652.709 713.564 652.709 713.486C652.709 713.408 652.623 713.322 652.518 713.294C652.413 713.267 652.327 713.175 652.327 713.091C652.327 712.979 652.234 712.938 651.984 712.938C651.726 712.938 651.628 712.892 651.593 712.755C651.566 712.654 651.463 712.55 651.363 712.524C651.262 712.497 651.18 712.412 651.18 712.333C651.18 712.247 651.052 712.167 650.857 712.13C650.646 712.09 650.516 712.002 650.483 711.879C650.454 711.766 650.353 711.689 650.234 711.689C650.098 711.689 650.034 711.628 650.034 711.497C650.034 711.337 649.97 711.305 649.652 711.305C649.333 711.305 649.27 711.273 649.27 711.113C649.27 710.953 649.206 710.921 648.888 710.921C648.569 710.921 648.505 710.889 648.505 710.729C648.505 710.553 648.442 710.537 647.741 710.537C647.142 710.537 646.977 710.507 646.977 710.399C646.977 710.324 647.074 710.243 647.192 710.22C647.31 710.197 647.138 710.173 646.81 710.166C646.281 710.154 646.213 710.131 646.213 709.96C646.213 709.781 646.149 709.768 645.257 709.768C644.366 709.768 644.302 709.756 644.302 709.576C644.302 709.396 644.238 709.384 643.299 709.384C642.359 709.384 642.296 709.372 642.296 709.192C642.296 709.007 642.232 709 640.528 709C638.825 709 638.761 709.007 638.761 709.192ZM639.525 720.093C639.525 720.203 639.405 720.237 639.018 720.237C638.639 720.237 638.457 720.287 638.301 720.433C638.167 720.559 638.092 720.585 638.091 720.505C638.09 720.419 638.068 720.414 638.019 720.488C637.98 720.547 637.701 720.626 637.399 720.663C637.019 720.711 636.85 720.773 636.85 720.868C636.85 720.964 636.735 721.006 636.468 721.006C636.155 721.006 636.086 721.039 636.086 721.189C636.086 721.329 635.994 721.389 635.704 721.438C635.488 721.475 635.322 721.557 635.322 721.627C635.322 721.696 635.236 721.774 635.13 721.802C635.016 721.832 634.939 721.933 634.939 722.053C634.939 722.19 634.879 722.254 634.748 722.254C634.621 722.254 634.557 722.318 634.557 722.446C634.557 722.606 634.493 722.638 634.175 722.638H633.793V723.023C633.793 723.343 633.761 723.407 633.602 723.407C633.475 723.407 633.411 723.471 633.411 723.599C633.411 723.727 633.347 723.791 633.22 723.791C633.05 723.791 633.029 723.855 633.029 724.361C633.029 724.878 633.009 724.933 632.814 724.961C632.635 724.986 632.594 725.06 632.569 725.4C632.551 725.661 632.494 725.808 632.413 725.808C632.264 725.808 632.191 726.186 632.172 727.056C632.164 727.4 632.118 727.695 632.068 727.713C631.936 727.76 631.958 728.089 632.097 728.145C632.193 728.184 632.193 728.195 632.097 728.201C631.959 728.21 631.933 728.753 632.068 728.801C632.118 728.819 632.166 729.244 632.174 729.746C632.192 730.859 632.248 731.186 632.42 731.186C632.501 731.186 632.551 731.292 632.551 731.463C632.551 732.012 632.662 732.339 632.85 732.339C632.995 732.339 633.029 732.412 633.029 732.723C633.029 733.043 633.06 733.107 633.22 733.107C633.36 733.107 633.411 733.171 633.411 733.347C633.411 733.524 633.462 733.588 633.602 733.588C633.757 733.588 633.793 733.652 633.793 733.924C633.793 734.196 633.829 734.26 633.984 734.26C634.111 734.26 634.175 734.324 634.175 734.452C634.175 734.58 634.239 734.644 634.366 734.644C634.489 734.644 634.557 734.708 634.557 734.824C634.557 734.959 634.651 735.019 634.939 735.065C635.237 735.113 635.322 735.169 635.322 735.318C635.322 735.444 635.386 735.508 635.513 735.508C635.618 735.508 635.704 735.568 635.704 735.641C635.704 735.782 636.104 735.893 636.614 735.893C636.881 735.893 636.92 735.921 636.878 736.085C636.832 736.261 636.875 736.277 637.412 736.277C637.952 736.277 637.997 736.293 638.006 736.493C638.015 736.7 638.019 736.699 638.092 736.469C638.165 736.239 638.169 736.238 638.178 736.445C638.186 736.625 638.242 736.661 638.515 736.661C638.779 736.661 638.851 736.619 638.884 736.445L638.926 736.229L638.939 736.445C638.952 736.659 638.965 736.661 640.433 736.661C641.85 736.661 641.913 736.653 641.913 736.469C641.913 736.309 641.977 736.277 642.296 736.277C642.608 736.277 642.678 736.243 642.678 736.093C642.678 735.954 642.77 735.894 643.06 735.845C643.295 735.805 643.442 735.727 643.442 735.644C643.442 735.569 643.532 735.508 643.642 735.508C643.759 735.508 643.862 735.432 643.89 735.323C643.923 735.196 644.056 735.118 644.311 735.075C644.539 735.036 644.684 734.959 644.684 734.876C644.684 734.801 644.753 734.74 644.836 734.74C644.92 734.74 645.011 734.655 645.038 734.55C645.07 734.428 645.199 734.34 645.402 734.301C645.6 734.264 645.735 734.174 645.765 734.059C645.791 733.958 645.876 733.876 645.954 733.876C646.031 733.876 646.117 733.789 646.145 733.684C646.172 733.578 646.258 733.492 646.336 733.492C646.413 733.492 646.499 733.405 646.527 733.299C646.557 733.184 646.657 733.107 646.777 733.107C646.946 733.107 646.977 733.049 646.977 732.723C646.977 732.403 647.009 732.339 647.168 732.339C647.327 732.339 647.359 732.275 647.359 731.955C647.359 731.635 647.391 731.571 647.55 731.571C647.709 731.571 647.741 731.507 647.741 731.186C647.741 730.866 647.773 730.802 647.932 730.802C648.118 730.802 648.123 730.738 648.123 728.641C648.123 726.544 648.118 726.48 647.932 726.48C647.762 726.48 647.741 726.416 647.741 725.904C647.741 725.392 647.72 725.328 647.55 725.328C647.382 725.328 647.359 725.264 647.359 724.799C647.359 724.335 647.336 724.271 647.168 724.271C647.028 724.271 646.977 724.207 646.977 724.031C646.977 723.859 646.925 723.791 646.794 723.791C646.655 723.791 646.596 723.698 646.547 723.407C646.498 723.115 646.438 723.023 646.3 723.023C646.181 723.023 646.117 722.956 646.117 722.831C646.117 722.724 646.053 722.638 645.974 722.638C645.894 722.638 645.83 722.553 645.83 722.446C645.83 722.322 645.767 722.254 645.651 722.254C645.552 722.254 645.449 722.171 645.422 722.068C645.391 721.947 645.257 721.861 645.038 721.819C644.821 721.778 644.685 721.691 644.654 721.573C644.628 721.472 644.543 721.39 644.465 721.39C644.388 721.39 644.302 721.303 644.274 721.198C644.236 721.052 644.144 721.006 643.892 721.006C643.64 721.006 643.548 720.959 643.51 720.814C643.47 720.661 643.38 720.621 643.069 720.621C642.785 720.621 642.678 720.582 642.678 720.477C642.678 720.383 642.584 720.333 642.403 720.333C641.929 720.333 641.531 720.218 641.531 720.081C641.531 719.889 641.267 719.919 641.215 720.117C641.173 720.277 641.171 720.277 641.16 720.117C641.151 719.971 641.043 719.949 640.337 719.949C639.679 719.949 639.525 719.976 639.525 720.093ZM621.851 722.11C621.851 722.189 621.915 722.254 621.994 722.254C622.073 722.254 622.138 722.189 622.138 722.11C622.138 722.031 622.073 721.966 621.994 721.966C621.915 721.966 621.851 722.031 621.851 722.11ZM621.087 726.336C621.087 726.486 621.141 726.576 621.23 726.576C621.319 726.576 621.373 726.486 621.373 726.336C621.373 726.187 621.319 726.096 621.23 726.096C621.141 726.096 621.087 726.187 621.087 726.336Z" fill="#FF6B4A"/>
</g>
<defs>
<clipPath id="clip0_335_86">
<rect width="911" height="1161" fill="white" transform="translate(911 1161) rotate(-180)"/>
</clipPath>
</defs>
</svg>
